<?xml version="1.0" encoding="UTF-8"?>
<svg id="Layer_2" xmlns="http://www.w3.org/2000/svg" xmlns:xlink="http://www.w3.org/1999/xlink" viewBox="0 0 243.15 58.54">
  <defs>
    <style>
      .cls-1 {
        fill: #111;
      }

      .cls-2 {
        fill: url(#linear-gradient-2);
      }

      .cls-3 {
        fill: #21b09b;
      }

      .cls-4 {
        fill: url(#linear-gradient-4);
      }

      .cls-5 {
        fill: url(#linear-gradient-3);
      }

      .cls-6 {
        fill: url(#linear-gradient-5);
      }

      .cls-7 {
        fill: url(#linear-gradient);
      }
    </style>
    <linearGradient id="linear-gradient" x1=".09" y1="32.56" x2="14.29" y2="46.69" gradientTransform="translate(0 87.8) scale(1 -1)" gradientUnits="userSpaceOnUse">
      <stop offset="0" stop-color="#32b08f"/>
      <stop offset=".31" stop-color="#1d9b70"/>
      <stop offset=".66" stop-color="#0a8753"/>
      <stop offset=".86" stop-color="#038049"/>
    </linearGradient>
    <linearGradient id="linear-gradient-2" x1="25.18" y1="85.74" x2="6.89" y2="28.37" gradientTransform="translate(0 87.8) scale(1 -1)" gradientUnits="userSpaceOnUse">
      <stop offset="0" stop-color="#49b175"/>
      <stop offset=".46" stop-color="#21b09b"/>
      <stop offset="1" stop-color="#07a3c1"/>
    </linearGradient>
    <linearGradient id="linear-gradient-3" x1="34.55" y1="82.35" x2="11.65" y2="25.52" gradientTransform="translate(0 87.8) scale(1 -1)" gradientUnits="userSpaceOnUse">
      <stop offset="0" stop-color="#49b175"/>
      <stop offset=".46" stop-color="#21b09b"/>
      <stop offset=".92" stop-color="#0e8fa8"/>
    </linearGradient>
    <linearGradient id="linear-gradient-4" x1="27.88" y1="70.95" x2="39.41" y2="29.45" gradientTransform="translate(0 87.8) scale(1 -1)" gradientUnits="userSpaceOnUse">
      <stop offset=".06" stop-color="#337e53"/>
      <stop offset=".62" stop-color="#21b09b"/>
      <stop offset=".77" stop-color="#17aba8"/>
      <stop offset=".95" stop-color="#07a3c1"/>
    </linearGradient>
    <linearGradient id="linear-gradient-5" x1="27.69" y1="72.11" x2="44.7" y2="27.64" gradientTransform="translate(0 87.8) scale(1 -1)" gradientUnits="userSpaceOnUse">
      <stop offset=".06" stop-color="#337e53"/>
      <stop offset=".62" stop-color="#21b09b"/>
      <stop offset=".75" stop-color="#1ba29a"/>
      <stop offset=".95" stop-color="#0f839a"/>
    </linearGradient>
  </defs>
  <g id="Layer_1-2" data-name="Layer_1">
    <g>
      <g>
        <path class="cls-7" d="M14.26,48.08c1.37-5.73-.03-13.13-1.02-17.17.04.55.08,1.13.11,1.74.51,15.1-13.35,23.24-13.35,23.24,2.95,1.31,5.85,2.02,8.6,2.14,1.95-1.88,4.52-5.13,5.67-9.95h0Z"/>
        <path class="cls-2" d="M33.95,5.43c-17.87,1.05-11.41,26.8-15.3,40.91-.09.3-.2.6-.31.89-.04.09-.07.2-.11.29l-.05.13c-1.95,5.04-5.47,8.45-7.95,10.37-.54.03-1.08.04-1.64,0,6.97-7.1,6.22-16.12,4.77-25.05-1.04-6.37-2.44-12.71-1.66-18.26C12.48,9.83,15.07.35,23.07,0c3.62-.11,7.33,2,10.88,5.42Z"/>
        <path class="cls-5" d="M33.95,5.43c-17.87,1.05-11.41,26.8-15.3,40.91-.09.3-.2.6-.31.89-.04.09-.07.2-.11.29l-.05.13c-.22.57-.47,1.11-.72,1.64-.09.18-.18.36-.28.53-.1.19-.2.37-.31.56-3.08,5.29-7.89,7.41-8.26,7.63-.01,0-.02.01-.02.01,0,0,1.1.02,1.64,0,1.6-.08,3.15-.37,4.6-.88h0c7.19-2.51,12.36-10.32,13.01-23.77,0,0,1.05-25.03,12.24-20.64-1.95-2.77-4.01-5.27-6.13-7.3Z"/>
        <path class="cls-4" d="M46.89,46.8c1.15-5.62-3.77-19.18-14.79-30.96-3.79,6.05-4.27,17.52-4.27,17.52,6.28,9.21,12.71,18.46-.6,24.38,0,0,17.91-2.32,19.66-10.94Z"/>
        <path class="cls-6" d="M40.08,12.73c-3.62-1.42-6.17.23-7.98,3.11,11.02,11.78,15.93,25.34,14.79,30.96-1.76,8.62-19.66,10.94-19.66,10.94,0,0,14.23,2.56,22.5-1.48,3.79-1.85,5.79-6.04,5.1-10.2-1.37-8.09-7.26-22.74-14.73-33.35h0Z"/>
      </g>
      <g>
        <path class="cls-1" d="M99.05,20.84c0,.84-.16,1.58-.47,2.21s-.74,1.19-1.27,1.66-1.14.86-1.83,1.18c-.69.32-1.41.57-2.16.76-.75.19-1.5.32-2.26.4s-1.46.12-2.13.12c-.51,0-1.01,0-1.51-.03-.5-.02-1-.06-1.51-.13l-.05,5.79-3.33.03c.02-3.04,0-6.06-.06-9.06s-.11-6.02-.17-9.06c.61-.12,1.26-.22,1.94-.3s1.37-.14,2.07-.19c.7-.04,1.39-.08,2.08-.09.69-.02,1.35-.03,1.98-.03.69,0,1.39.06,2.09.17s1.37.28,2.01.52,1.24.53,1.8.89c.56.37,1.05.79,1.46,1.29s.74,1.07.98,1.71.35,1.36.35,2.16h0ZM88.38,15.41c-.44,0-.88,0-1.32.03-.44.02-.89.05-1.32.1l.21,10.19c.4.06.81.09,1.23.11.42,0,.84.01,1.27.01.58,0,1.15-.03,1.73-.11.57-.07,1.12-.18,1.64-.34s1-.37,1.44-.63c.44-.26.82-.59,1.15-.98s.57-.85.76-1.37.27-1.13.27-1.81c0-.64-.1-1.21-.3-1.71s-.47-.95-.81-1.33c-.34-.38-.74-.71-1.2-.98s-.95-.49-1.46-.67c-.52-.17-1.05-.3-1.61-.38-.55-.08-1.1-.11-1.65-.11h0Z"/>
        <path class="cls-1" d="M70.83,13.44c1.17,0,2.21.21,3.09.61.89.41,1.66.96,2.3,1.66.65.69,1.19,1.49,1.63,2.41.43.91.78,1.86,1.04,2.86.26,1,.44,2,.55,3.02s.16,1.99.16,2.9c0,.8-.05,1.57-.16,2.3s-.21,1.39-.33,1.97c-.14.67-.31,1.3-.49,1.9l-3.92-.7c.25-.59.49-1.27.71-2.03.22-.76.42-1.54.59-2.33-1.05-.09-2.09-.16-3.13-.18s-2.07-.04-3.1-.04c-.8,0-1.61,0-2.41.01-.8,0-1.61.04-2.42.09.17.73.37,1.47.6,2.2.23.73.5,1.48.8,2.25l-4.09.75c-.19-.4-.37-.86-.52-1.39-.13-.45-.25-1-.35-1.64-.11-.64-.16-1.37-.16-2.18,0-1.06.04-2.16.14-3.28s.26-2.22.5-3.29.59-2.08,1.03-3.04c.45-.96,1.02-1.8,1.73-2.51.71-.72,1.58-1.29,2.58-1.71,1.01-.42,2.21-.63,3.6-.63h.02ZM64.39,22.64c0,.72.03,1.41.08,2.07s.13,1.32.25,1.97c.86.05,1.72.08,2.58.09s1.73.01,2.61.01c1.05,0,2.09,0,3.15-.02s2.12-.06,3.19-.14c.16-.96.23-1.86.23-2.7,0-.61-.04-1.26-.14-1.95s-.23-1.37-.43-2.05c-.2-.67-.45-1.32-.77-1.95-.32-.62-.7-1.17-1.16-1.64-.46-.47-.99-.84-1.59-1.12s-1.28-.42-2.04-.42c-.7,0-1.33.11-1.89.33s-1.06.53-1.51.92c-.45.38-.83.84-1.15,1.35s-.59,1.06-.79,1.64c-.21.58-.36,1.18-.47,1.79-.1.61-.16,1.21-.16,1.8h0Z"/>
        <path class="cls-1" d="M118.49,20.84c0,.84-.16,1.58-.47,2.21s-.74,1.19-1.27,1.66-1.14.86-1.83,1.18c-.69.32-1.41.57-2.16.76-.75.19-1.5.32-2.26.4-.76.08-1.46.12-2.13.12-.51,0-1.01,0-1.51-.03-.5-.02-1.01-.06-1.51-.13l-.05,5.79-3.33.03c.02-3.04,0-6.06-.06-9.06s-.11-6.02-.17-9.06c.61-.12,1.26-.22,1.94-.3.68-.08,1.37-.14,2.07-.19.7-.04,1.39-.08,2.08-.09.69-.02,1.35-.03,1.98-.03.69,0,1.39.06,2.08.17.7.11,1.37.28,2.01.52s1.24.53,1.8.89c.56.37,1.05.79,1.46,1.29s.74,1.07.98,1.71.36,1.36.36,2.16h0ZM107.82,15.41c-.44,0-.88,0-1.32.03-.45.02-.89.05-1.32.1l.21,10.19c.4.06.81.09,1.23.11.42,0,.84.01,1.27.01.58,0,1.15-.03,1.73-.11.57-.07,1.12-.18,1.64-.34s1-.37,1.44-.63c.44-.26.82-.59,1.15-.98s.57-.85.76-1.37.27-1.13.27-1.81c0-.64-.1-1.21-.3-1.71-.2-.5-.47-.95-.81-1.33s-.74-.71-1.2-.98c-.45-.27-.95-.49-1.46-.67-.52-.17-1.05-.3-1.61-.38s-1.1-.11-1.65-.11h-.01Z"/>
        <path class="cls-1" d="M128.67,33.58c-1.01,0-1.95-.13-2.83-.38-.88-.25-1.68-.62-2.41-1.12-.72-.5-1.36-1.13-1.92-1.88-.55-.75-1.01-1.62-1.37-2.62l4.47-.25c.07,1.59.52,2.8,1.36,3.63s2.02,1.25,3.54,1.25c.6,0,1.19-.06,1.78-.18.6-.12,1.13-.33,1.6-.61.47-.29.85-.67,1.15-1.15.3-.47.45-1.06.45-1.77,0-.49-.09-.91-.28-1.26s-.44-.64-.76-.88-.67-.42-1.08-.56-.83-.25-1.27-.33c-.43-.08-.87-.14-1.3-.19s-.83-.08-1.19-.11c-.59-.04-1.2-.11-1.83-.21-.64-.09-1.27-.23-1.88-.4-.62-.17-1.2-.39-1.76-.66-.56-.26-1.05-.6-1.47-1.01s-.76-.89-1.01-1.46c-.25-.56-.38-1.22-.38-1.98s.12-1.38.36-1.97.57-1.1.99-1.56.9-.84,1.45-1.18,1.13-.6,1.75-.81,1.25-.37,1.9-.47,1.27-.16,1.88-.16,1.25.04,1.93.12c.67.08,1.35.21,2.02.38.67.18,1.32.42,1.95.71s1.19.64,1.7,1.06.93.91,1.26,1.48c.33.57.55,1.21.66,1.93l-4.32.88c.05-.32.08-.65.08-.98,0-.78-.16-1.45-.48-1.99s-.74-.98-1.27-1.31c-.52-.33-1.12-.57-1.78-.72s-1.34-.22-2.03-.22c-.61,0-1.22.08-1.81.24-.6.16-1.14.4-1.62.72-.48.32-.86.72-1.16,1.2s-.44,1.05-.44,1.71c0,.45.12.84.36,1.17s.56.61.95.84c.39.24.83.43,1.33.59s.98.28,1.48.38.97.18,1.42.23.83.09,1.14.12c.55.06,1.13.14,1.73.25.6.11,1.2.26,1.78.45.59.19,1.15.43,1.68.71.54.28,1,.63,1.41,1.03s.72.88.96,1.42c.24.54.35,1.17.35,1.87,0,.74-.14,1.41-.44,1.98-.3.58-.68,1.1-1.17,1.54-.49.45-1.05.83-1.68,1.14s-1.29.57-1.97.76-1.36.33-2.04.43c-.68.09-1.32.14-1.9.14h0Z"/>
        <path class="cls-1" d="M159.38,14.24c0,.69,0,1.34-.02,1.94s-.03,1.31-.06,2.13c-.03.81-.06,1.7-.11,2.65-.05.95-.11,1.93-.18,2.96s-.16,2.05-.26,3.08c-.11,1.02-.23,2.02-.37,2.99-.14.97-.3,1.87-.49,2.7l-2.47.1c-.43-.65-.91-1.38-1.45-2.2-.54-.82-1.09-1.68-1.68-2.58-.58-.9-1.17-1.82-1.77-2.75s-1.17-1.84-1.73-2.72c-1.3-2.06-2.64-4.18-4.02-6.38-.04,2.34-.08,4.58-.09,6.7,0,.91-.01,1.83-.01,2.77s0,1.85,0,2.72.02,1.68.04,2.43c.02.75.05,1.39.08,1.92l-2.75.35c-.14-.72-.25-1.55-.35-2.47-.09-.92-.18-1.89-.24-2.91-.06-1.01-.11-2.05-.15-3.11-.03-1.06-.06-2.09-.08-3.09-.03-2.34-.03-4.74,0-7.23l5.16-.4,9.25,16.05c.09-1.12.15-2.33.17-3.62s0-2.62-.04-3.99c-.05-1.37-.13-2.76-.24-4.17-.11-1.41-.25-2.79-.42-4.15l4.27.3h-.01Z"/>
        <path class="cls-1" d="M172.12,13.44c1.17,0,2.21.21,3.09.61.89.41,1.66.96,2.3,1.66.65.69,1.19,1.49,1.63,2.41.43.91.78,1.86,1.04,2.86.26,1,.44,2,.55,3.02.11,1.02.16,1.99.16,2.9,0,.8-.05,1.57-.16,2.3s-.21,1.39-.33,1.97c-.14.67-.31,1.3-.49,1.9l-3.92-.7c.25-.59.49-1.27.71-2.03s.42-1.54.59-2.33c-1.05-.09-2.09-.16-3.13-.18s-2.07-.04-3.1-.04c-.8,0-1.61,0-2.41.01-.8,0-1.61.04-2.42.09.17.73.37,1.47.6,2.2.23.73.5,1.48.8,2.25l-4.09.75c-.19-.4-.37-.86-.52-1.39-.13-.45-.25-1-.35-1.64-.11-.64-.16-1.37-.16-2.18,0-1.06.04-2.16.14-3.28.09-1.13.26-2.22.5-3.29.25-1.07.59-2.08,1.03-3.04.45-.96,1.02-1.8,1.73-2.51.71-.72,1.58-1.29,2.58-1.71,1.01-.42,2.21-.63,3.6-.63h.02ZM165.68,22.64c0,.72.03,1.41.08,2.07s.13,1.32.25,1.97c.86.05,1.72.08,2.58.09s1.73.01,2.61.01c1.05,0,2.09,0,3.15-.02s2.12-.06,3.19-.14c.16-.96.23-1.86.23-2.7,0-.61-.04-1.26-.14-1.95-.09-.69-.23-1.37-.43-2.05-.2-.67-.45-1.32-.77-1.95-.32-.62-.7-1.17-1.16-1.64s-.99-.84-1.59-1.12c-.6-.28-1.28-.42-2.04-.42-.7,0-1.33.11-1.89.33s-1.06.53-1.51.92c-.45.38-.83.84-1.15,1.35s-.59,1.06-.79,1.64c-.21.58-.36,1.18-.47,1.79-.1.61-.16,1.21-.16,1.8h0Z"/>
        <path class="cls-1" d="M199.27,14.05l-.16,2.52c-.44-.16-.95-.28-1.53-.37-.58-.09-1.18-.16-1.79-.21s-1.21-.09-1.8-.1c-.59-.02-1.11-.03-1.58-.03h-.35l.75,16.87h-3.97l.47-16.74c-.64.05-1.29.12-1.96.21-.67.09-1.31.2-1.93.33s-1.19.29-1.71.47c-.53.18-.96.39-1.3.62l-.25-3.48,17.11-.11h0Z"/>
        <path class="cls-1" d="M205.18,13.92l-.66,18.73-2.62.05-.53-18.55,3.8-.23h0Z"/>
        <path class="cls-1" d="M242.68,14.24c0,.69,0,1.34-.02,1.94s-.03,1.31-.06,2.13-.06,1.7-.11,2.65c-.04.95-.11,1.93-.18,2.96s-.16,2.05-.26,3.08c-.11,1.02-.23,2.02-.37,2.99-.14.97-.3,1.87-.49,2.7l-2.47.1c-.43-.65-.91-1.38-1.45-2.2-.54-.82-1.09-1.68-1.68-2.58-.58-.9-1.17-1.82-1.77-2.75s-1.17-1.84-1.73-2.72c-1.3-2.06-2.64-4.18-4.02-6.38-.04,2.34-.08,4.58-.09,6.7,0,.91-.01,1.83-.01,2.77s0,1.85,0,2.72c0,.87.02,1.68.04,2.43.03.75.05,1.39.08,1.92l-2.75.35c-.14-.72-.25-1.55-.35-2.47s-.18-1.89-.24-2.91-.11-2.05-.15-3.11c-.03-1.06-.06-2.09-.08-3.09-.03-2.34-.03-4.74,0-7.23l5.16-.4,9.25,16.05c.09-1.12.15-2.33.17-3.62s0-2.62-.04-3.99-.13-2.76-.24-4.17-.25-2.79-.42-4.15l4.27.3h0Z"/>
        <g>
          <g>
            <path class="cls-3" d="M219.07,29.87l-.77.78h-7.4l-.4-.98v-.1c-.48-.08-.91-.19-1.28-.35v2.46l.53.96h9.6l1-1v-4.18c-.4.22-.83.44-1.28.65v1.77h0Z"/>
            <path class="cls-3" d="M219.07,25.57c.49-.29.92-.6,1.28-.91v-3.42c-.4.22-.83.44-1.28.65v3.69h0Z"/>
            <path class="cls-1" d="M220.35,14.27v4.19c-.37.31-.79.62-1.28.91v-3.11l-.36-.78h-7.94l-.26.75v4.86c-.62-.18-1.06-.44-1.28-.79v-6.07l.35-.99h10.31l.47,1.03Z"/>
          </g>
          <path class="cls-1" d="M212.12,23.02c-2.22,0-3.76-.62-4.12-1.65-.24-.68.04-1.5.81-2.34-.15.35-.2.68-.14.99.19,1.06,1.54,1.7,3.62,1.7,1.12,0,2.39-.19,3.65-.55,2.72-.78,4.97-2.2,5.73-3.61.26-.49.33-.96.2-1.37-.11-.36-.38-.67-.77-.91,1.22.26,1.99.81,2.2,1.55.5,1.84-2.57,4.33-6.85,5.55-1.49.43-2.99.66-4.34.66h0Z"/>
          <path class="cls-3" d="M209.23,23.01v3.48c.21.35.66.62,1.28.79v-3.93c-.48-.08-.91-.18-1.28-.34Z"/>
          <path class="cls-3" d="M212.12,29.23c-2.22,0-3.76-.62-4.12-1.65-.24-.68.04-1.5.81-2.34-.15.35-.2.68-.14.98.19,1.06,1.54,1.7,3.62,1.7,1.12,0,2.39-.19,3.65-.55,2.72-.78,4.97-2.2,5.73-3.61.26-.49.33-.96.2-1.37-.11-.36-.38-.67-.77-.92,1.22.26,1.99.81,2.2,1.55.5,1.84-2.57,4.34-6.85,5.55-1.49.43-2.99.66-4.34.66h0Z"/>
        </g>
        <circle class="cls-1" cx="214.8" cy="31.62" r=".83"/>
      </g>
      <g>
        <g>
          <path class="cls-1" d="M69.1,47.25l-.91-2.37h-4.68l-.91,2.37h-.75l3.62-9.32h.75l3.61,9.32h-.75,0ZM63.79,44.21h4.16l-2.08-5.42-2.07,5.42Z"/>
          <path class="cls-1" d="M70.18,47.48h-1.24l-.91-2.37h-4.36l-.91,2.37h-1.24l3.8-9.78h1.06l.06.14,3.73,9.64h0ZM69.26,47.02h.25l-3.43-8.86h-.21l2.41,6.29h-4.83l2.41-6.29h-.21l-3.45,8.86h.25l.91-2.37h4.99l.91,2.37h.01ZM64.12,43.99h3.49l-1.74-4.55-1.74,4.55h0Z"/>
        </g>
        <g>
          <path class="cls-1" d="M74.6,40.45c.96,0,1.77.33,2.45,1.01.67.67,1.01,1.5,1.01,2.47s-.33,1.8-1.01,2.47-1.48,1.01-2.45,1.01c-.63,0-1.19-.15-1.7-.45-.5-.3-.89-.72-1.16-1.24v4.21h-.67v-9.32h.67v1.55c.28-.52.67-.94,1.16-1.24.5-.3,1.07-.45,1.7-.45ZM72.56,45.94c.55.55,1.21.82,2.01.82s1.46-.28,2.01-.82c.55-.55.82-1.22.82-2.01s-.27-1.46-.82-2.01-1.21-.82-2.01-.82-1.46.28-2.01.82-.82,1.22-.82,2.01.27,1.46.82,2.01Z"/>
          <path class="cls-1" d="M71.97,50.14h-1.13v-9.78h1.13v1.02c.23-.27.5-.5.82-.69.53-.32,1.14-.48,1.82-.48,1.02,0,1.89.36,2.61,1.07.71.72,1.08,1.6,1.08,2.63s-.36,1.92-1.08,2.63c-.71.71-1.59,1.08-2.61,1.08-.67,0-1.28-.16-1.82-.48-.31-.19-.58-.41-.82-.69v3.69h0ZM71.3,49.68h.2v-4.91l.43.82c.26.48.62.87,1.08,1.15s.99.42,1.58.42c.91,0,1.65-.31,2.28-.94.62-.62.94-1.4.94-2.31s-.31-1.67-.94-2.31c-.63-.63-1.38-.94-2.28-.94-.58,0-1.12.14-1.58.41-.47.28-.83.67-1.08,1.15l-.43.83v-2.25h-.2v8.86h0ZM74.56,46.99c-.86,0-1.58-.3-2.17-.89s-.89-1.32-.89-2.17.3-1.58.89-2.18c.58-.59,1.31-.89,2.17-.89s1.58.3,2.17.89.89,1.33.89,2.18-.3,1.58-.89,2.17c-.58.6-1.31.89-2.17.89ZM74.56,41.32c-.72,0-1.34.26-1.84.75-.51.52-.75,1.12-.75,1.85s.25,1.34.75,1.85h0c.5.51,1.11.75,1.84.75s1.33-.25,1.84-.75.75-1.11.75-1.85-.25-1.34-.75-1.85c-.5-.5-1.12-.75-1.84-.75Z"/>
        </g>
        <g>
          <path class="cls-1" d="M83.19,40.45c.96,0,1.77.33,2.45,1.01s1.01,1.5,1.01,2.47-.33,1.8-1.01,2.47-1.48,1.01-2.45,1.01c-.63,0-1.19-.15-1.7-.45s-.89-.72-1.16-1.24v4.21h-.67v-9.32h.67v1.55c.28-.52.67-.94,1.16-1.24.5-.3,1.07-.45,1.7-.45ZM81.15,45.94c.55.55,1.21.82,2.01.82s1.46-.28,2.01-.82c.55-.55.82-1.22.82-2.01s-.27-1.46-.82-2.01c-.55-.55-1.21-.82-2.01-.82s-1.46.28-2.01.82-.82,1.22-.82,2.01.27,1.46.82,2.01Z"/>
          <path class="cls-1" d="M80.56,50.14h-1.13v-9.78h1.13v1.02c.23-.27.5-.5.82-.69.53-.32,1.14-.48,1.82-.48,1.02,0,1.9.36,2.61,1.07.71.71,1.08,1.6,1.08,2.63s-.36,1.92-1.08,2.63-1.59,1.08-2.61,1.08c-.67,0-1.28-.16-1.82-.48-.31-.19-.58-.41-.82-.69v3.69h0ZM79.9,49.68h.21v-4.92l.43.83c.25.48.62.87,1.08,1.15s.99.42,1.58.42c.91,0,1.65-.31,2.28-.94.62-.62.94-1.4.94-2.31s-.31-1.68-.94-2.31-1.38-.94-2.28-.94c-.58,0-1.12.14-1.58.41-.47.28-.83.67-1.08,1.15l-.43.83v-2.26h-.21v8.86h0ZM83.16,46.99c-.85,0-1.58-.3-2.17-.89-.58-.59-.89-1.32-.89-2.17s.3-1.58.89-2.18c.59-.59,1.32-.89,2.17-.89s1.58.3,2.17.89c.58.59.89,1.32.89,2.18s-.3,1.58-.89,2.17c-.58.6-1.32.89-2.17.89ZM83.16,41.32c-.73,0-1.33.25-1.84.75s-.75,1.12-.75,1.85.25,1.34.75,1.85h0c.51.51,1.11.75,1.84.75s1.33-.25,1.84-.75.75-1.11.75-1.85-.25-1.34-.75-1.85c-.51-.51-1.11-.75-1.84-.75Z"/>
        </g>
        <g>
          <path class="cls-1" d="M88.57,42.34c0,.33.14.58.41.77s.61.33,1.01.42.8.19,1.19.31c.4.11.73.31,1.01.58s.41.64.41,1.09c0,.55-.22,1.01-.66,1.36-.44.35-1.01.53-1.72.53-.64,0-1.18-.14-1.62-.41-.44-.27-.74-.63-.91-1.08l.57-.33c.13.36.36.65.7.86.34.21.76.31,1.26.31s.91-.11,1.23-.33.48-.53.48-.92c0-.33-.14-.59-.41-.79s-.61-.34-1.01-.43-.8-.19-1.19-.31c-.4-.11-.73-.31-1.01-.57-.28-.26-.41-.62-.41-1.06,0-.53.21-.98.64-1.35s.97-.55,1.63-.55c.53,0,.99.12,1.39.36s.69.57.87.97l-.56.32c-.13-.33-.35-.58-.67-.75-.31-.18-.66-.26-1.04-.26-.45,0-.83.11-1.14.34-.31.23-.46.53-.46.91h0Z"/>
          <path class="cls-1" d="M90.23,47.63c-.69,0-1.27-.15-1.74-.44-.48-.3-.82-.7-1.01-1.19l-.07-.18.98-.57.09.26c.11.31.3.55.6.74.3.19.69.28,1.14.28s.82-.09,1.11-.29c.26-.18.38-.41.38-.74,0-.26-.1-.45-.31-.6-.25-.18-.56-.31-.93-.4-.4-.09-.8-.2-1.2-.31-.43-.13-.8-.33-1.1-.63-.32-.31-.48-.72-.48-1.23,0-.6.24-1.11.71-1.52.46-.4,1.06-.6,1.79-.6.57,0,1.08.13,1.51.39.43.26.76.63.96,1.08l.09.19-.97.55-.1-.25c-.11-.28-.3-.49-.57-.64-.28-.15-.58-.23-.92-.23-.41,0-.74.09-1,.3-.25.18-.36.42-.36.73,0,.25.1.44.31.58.25.17.57.3.94.38.4.09.8.2,1.2.31.43.13.8.34,1.11.64.32.31.48.74.48,1.24,0,.62-.25,1.14-.74,1.54-.48.39-1.11.58-1.87.58h-.01ZM87.99,46.01c.16.31.4.57.74.78.4.25.91.37,1.5.37.65,0,1.18-.16,1.58-.48.38-.31.57-.7.57-1.18,0-.39-.11-.69-.35-.92-.25-.24-.55-.41-.91-.52-.39-.11-.79-.22-1.18-.31-.43-.1-.79-.25-1.09-.45-.33-.23-.52-.56-.52-.96,0-.46.19-.82.55-1.1.35-.26.77-.38,1.28-.38.42,0,.8.1,1.15.29.28.16.5.37.65.64l.16-.09c-.16-.28-.39-.51-.69-.69-.35-.21-.78-.33-1.27-.33-.61,0-1.11.16-1.48.49-.37.32-.55.7-.55,1.17,0,.38.11.68.35.9.25.25.55.41.91.52.39.11.79.21,1.18.31.43.1.8.26,1.09.47.34.24.51.57.51.97,0,.48-.19.86-.58,1.12-.36.25-.82.36-1.36.36s-1.01-.12-1.38-.35c-.3-.19-.53-.43-.69-.72l-.17.1v-.02Z"/>
        </g>
        <g>
          <path class="cls-1" d="M98.23,42.34c0,.33.14.58.41.77s.61.33,1.01.42.8.19,1.19.31c.4.11.73.31,1.01.58s.41.64.41,1.09c0,.55-.22,1.01-.66,1.36-.44.35-1.01.53-1.72.53-.64,0-1.18-.14-1.62-.41-.44-.27-.74-.63-.91-1.08l.57-.33c.13.36.36.65.7.86.34.21.76.31,1.26.31s.91-.11,1.23-.33.48-.53.48-.92c0-.33-.14-.59-.41-.79s-.61-.34-1.01-.43-.8-.19-1.19-.31c-.4-.11-.73-.31-1.01-.57-.28-.26-.41-.62-.41-1.06,0-.53.21-.98.64-1.35s.97-.55,1.63-.55c.53,0,.99.12,1.39.36s.69.57.87.97l-.56.32c-.13-.33-.35-.58-.67-.75-.31-.18-.66-.26-1.04-.26-.45,0-.83.11-1.14.34-.31.23-.46.53-.46.91h0Z"/>
          <path class="cls-1" d="M99.88,47.63c-.69,0-1.27-.15-1.74-.44-.48-.3-.82-.7-1.01-1.19l-.07-.18.99-.57.09.27c.11.31.3.55.6.74.3.19.69.28,1.14.28s.82-.09,1.11-.29c.26-.18.38-.41.38-.74,0-.26-.1-.45-.31-.6-.25-.18-.57-.31-.93-.4-.4-.09-.8-.2-1.2-.31-.43-.13-.8-.33-1.1-.63-.32-.31-.48-.72-.48-1.23,0-.6.24-1.11.71-1.52.46-.4,1.06-.6,1.79-.6.57,0,1.08.13,1.51.39.43.26.75.62.96,1.08l.09.19-.97.55-.1-.25c-.11-.28-.3-.49-.57-.64-.28-.16-.58-.23-.93-.23-.41,0-.74.09-1,.3-.25.18-.36.42-.36.73,0,.25.1.44.31.58.25.17.57.3.94.38.4.09.8.2,1.2.31.43.13.8.34,1.11.64.32.31.48.74.48,1.24,0,.62-.25,1.14-.75,1.54-.48.39-1.11.58-1.87.58h0ZM97.64,46.01c.16.31.4.57.74.78.4.25.9.37,1.5.37.65,0,1.19-.16,1.58-.48.39-.31.57-.7.57-1.18,0-.39-.11-.69-.35-.92-.25-.25-.55-.41-.91-.52-.39-.11-.79-.22-1.18-.31-.43-.1-.79-.25-1.09-.45-.33-.23-.52-.56-.52-.96,0-.46.19-.82.55-1.1.35-.26.77-.38,1.28-.38.41,0,.8.1,1.15.29.28.16.5.37.65.64l.16-.09c-.16-.28-.39-.51-.69-.69-.36-.21-.79-.33-1.27-.33-.61,0-1.11.16-1.48.49-.37.32-.55.7-.55,1.17,0,.38.11.68.35.9.25.25.55.41.91.52.39.11.79.21,1.18.31.43.1.79.26,1.09.47.34.24.51.57.51.97,0,.48-.2.86-.59,1.12-.36.24-.82.36-1.36.36s-1-.12-1.38-.35c-.3-.19-.53-.43-.69-.72l-.17.1v-.02Z"/>
        </g>
        <g>
          <path class="cls-1" d="M106.73,47.4c-.97,0-1.8-.33-2.48-1.01s-1.02-1.5-1.02-2.47.34-1.8,1.02-2.47,1.51-1.01,2.48-1.01,1.79.33,2.47,1.01c.68.67,1.02,1.5,1.02,2.47s-.34,1.8-1.02,2.47-1.5,1.01-2.47,1.01ZM104.72,45.94c.55.55,1.21.82,2.01.82s1.46-.28,2-.82c.54-.55.81-1.22.81-2.01s-.27-1.46-.81-2.01-1.21-.82-2-.82-1.46.28-2.01.82c-.55.55-.82,1.22-.82,2.01s.27,1.46.82,2.01Z"/>
          <path class="cls-1" d="M106.73,47.63c-1.04,0-1.92-.36-2.65-1.08-.72-.71-1.09-1.6-1.09-2.63s.36-1.92,1.09-2.63c.72-.71,1.61-1.07,2.65-1.07s1.91.36,2.63,1.07c.72.71,1.09,1.6,1.09,2.63s-.36,1.92-1.09,2.63c-.72.71-1.61,1.08-2.63,1.08ZM106.73,40.67c-.92,0-1.68.31-2.32.94-.64.64-.95,1.39-.95,2.31s.32,1.69.95,2.31c.64.63,1.4.94,2.32.94s1.68-.31,2.31-.94.95-1.4.95-2.31-.31-1.67-.95-2.31c-.63-.62-1.41-.94-2.31-.94ZM106.73,46.99c-.85,0-1.58-.3-2.17-.89-.59-.59-.89-1.32-.89-2.17s.3-1.58.89-2.18,1.32-.89,2.17-.89,1.58.3,2.16.89c.58.59.88,1.32.88,2.18s-.3,1.58-.88,2.17c-.58.6-1.31.89-2.16.89ZM106.73,41.31c-.73,0-1.33.25-1.84.75-.51.52-.75,1.12-.75,1.85s.25,1.34.75,1.85h0c.51.51,1.11.75,1.84.75s1.33-.25,1.83-.75c.5-.51.75-1.11.75-1.85s-.25-1.34-.75-1.85c-.5-.51-1.1-.75-1.84-.75h0Z"/>
        </g>
        <g>
          <path class="cls-1" d="M111.81,47.25v-9.72h.67v9.72h-.67Z"/>
          <path class="cls-1" d="M112.71,47.48h-1.13v-10.19h1.13v10.19ZM112.05,47.02h.2v-9.26h-.2v9.26Z"/>
        </g>
        <g>
          <path class="cls-1" d="M119.33,40.59h.67v6.66h-.67v-1.26c-.48.94-1.28,1.41-2.38,1.41-.79,0-1.42-.25-1.89-.72-.47-.48-.7-1.13-.7-1.94v-4.14h.68v4.14c0,.62.17,1.11.52,1.48.34.36.82.55,1.45.55.69,0,1.24-.23,1.68-.68s.65-1.11.65-1.97v-3.51h0Z"/>
          <path class="cls-1" d="M116.94,47.63c-.86,0-1.54-.27-2.05-.8s-.76-1.23-.76-2.1v-4.37h1.14v4.37c0,.57.14,1,.45,1.32.3.32.72.47,1.28.47.62,0,1.12-.2,1.51-.61s.58-1.02.58-1.81v-3.75h1.13v7.12h-1.13v-.74c-.52.59-1.24.89-2.15.89h0ZM114.59,40.82v3.91c0,.75.21,1.33.64,1.78.43.44.99.65,1.72.65,1.02,0,1.74-.42,2.18-1.28v-.02c-.08.14-.17.26-.28.38-.48.5-1.1.75-1.84.75-.69,0-1.23-.21-1.62-.62-.38-.4-.57-.96-.57-1.63v-3.91h-.22,0ZM119.56,47.02h.21v-6.2h-.21v3.28c0,.54-.08,1.01-.25,1.4l.25-.48v1.99h0Z"/>
        </g>
        <g>
          <path class="cls-1" d="M125.45,41.25h-1.99v4.33c0,.38.07.66.21.82.14.17.36.26.65.29.3.03.67.01,1.12-.03v.6c-.9.13-1.57.07-2.01-.19s-.66-.75-.66-1.49v-4.33h-1.46v-.65h1.46v-1.67l.68-.2v1.87h1.99v.65h0Z"/>
          <path class="cls-1" d="M124.61,47.55c-.53,0-.95-.09-1.28-.29-.52-.3-.77-.87-.77-1.69v-4.1h-1.46v-1.11h1.46v-1.61l1.14-.33v1.94h1.99v1.11h-1.99v4.1c0,.4.09.59.16.68.1.12.26.19.5.21.28.02.64.01,1.08-.03l.25-.03v1.05l-.19.03c-.32.05-.62.07-.88.07h0ZM121.55,41.01h1.46v4.56c0,.65.18,1.08.55,1.3.36.21.92.28,1.65.18v-.14c-.35.03-.66.03-.91.01-.36-.03-.63-.15-.81-.36-.18-.21-.27-.53-.27-.97v-4.56h1.99v-.19h-1.99v-1.79l-.22.06v1.72h-1.46v.19h0Z"/>
        </g>
        <g>
          <path class="cls-1" d="M127.76,38.82c-.11.1-.23.15-.37.15s-.26-.05-.37-.15c-.11-.1-.16-.23-.16-.38s.06-.26.16-.36c.11-.1.23-.15.37-.15s.26.05.37.15c.11.1.16.23.16.36,0,.15-.05.28-.16.38ZM127.05,47.25v-6.66h.67v6.66h-.67Z"/>
          <path class="cls-1" d="M127.95,47.48h-1.13v-7.12h1.13v7.12ZM127.28,47.02h.21v-6.2h-.21v6.2ZM127.38,39.21c-.2,0-.38-.08-.53-.22-.15-.14-.23-.33-.23-.55,0-.2.08-.38.23-.53.31-.29.76-.29,1.06,0,.15.14.23.33.23.53s-.08.4-.23.55h0c-.15.14-.33.22-.53.22h0ZM127.38,38.16c-.08,0-.15.03-.21.09-.06.06-.09.12-.09.2,0,.09.03.16.09.21.13.13.3.13.43,0h0c.06-.06.09-.13.09-.21,0-.08-.03-.14-.09-.2-.06-.06-.13-.09-.21-.09Z"/>
        </g>
        <g>
          <path class="cls-1" d="M132.82,47.4c-.97,0-1.8-.33-2.48-1.01s-1.02-1.5-1.02-2.47.34-1.8,1.02-2.47,1.51-1.01,2.48-1.01,1.79.33,2.47,1.01c.68.67,1.02,1.5,1.02,2.47s-.34,1.8-1.02,2.47-1.5,1.01-2.47,1.01ZM130.81,45.94c.55.55,1.21.82,2.01.82s1.46-.28,2-.82c.54-.55.81-1.22.81-2.01s-.27-1.46-.81-2.01-1.21-.82-2-.82-1.46.28-2.01.82c-.55.55-.82,1.22-.82,2.01s.27,1.46.82,2.01Z"/>
          <path class="cls-1" d="M132.82,47.63c-1.04,0-1.92-.36-2.65-1.08-.72-.71-1.09-1.6-1.09-2.63s.36-1.92,1.09-2.63c.72-.71,1.61-1.07,2.65-1.07s1.91.36,2.63,1.07c.72.71,1.09,1.6,1.09,2.63s-.36,1.92-1.09,2.63c-.72.71-1.6,1.08-2.63,1.08ZM132.82,40.67c-.92,0-1.68.31-2.32.94-.64.64-.95,1.39-.95,2.31s.32,1.69.95,2.31c.64.63,1.4.94,2.32.94s1.67-.31,2.31-.94c.63-.62.95-1.4.95-2.31s-.31-1.67-.95-2.31c-.64-.63-1.4-.94-2.31-.94ZM132.82,46.99c-.85,0-1.58-.3-2.17-.89-.58-.59-.89-1.32-.89-2.17s.3-1.58.89-2.18c.59-.59,1.32-.89,2.17-.89s1.58.3,2.16.89c.58.59.88,1.33.88,2.18s-.3,1.58-.88,2.17c-.58.6-1.31.89-2.16.89ZM132.82,41.31c-.74,0-1.33.25-1.84.75s-.75,1.12-.75,1.85.25,1.34.75,1.85h0c.51.51,1.11.75,1.84.75s1.33-.25,1.84-.75.74-1.11.74-1.85-.25-1.34-.75-1.85c-.5-.51-1.1-.75-1.83-.75h0Z"/>
        </g>
        <g>
          <path class="cls-1" d="M140.96,40.45c.79,0,1.41.24,1.89.72.47.48.7,1.13.7,1.94v4.14h-.68v-4.14c0-.62-.17-1.11-.51-1.48s-.82-.55-1.45-.55c-.69,0-1.24.23-1.68.68s-.65,1.11-.65,1.97v3.51h-.67v-6.66h.67v1.26c.48-.94,1.28-1.41,2.38-1.41Z"/>
          <path class="cls-1" d="M143.77,47.48h-1.14v-4.37c0-.57-.14-.99-.45-1.32-.3-.31-.72-.47-1.28-.47-.62,0-1.12.2-1.51.61s-.59,1.02-.59,1.81v3.75h-1.13v-7.12h1.13v.74c.52-.59,1.24-.89,2.16-.89.86,0,1.54.27,2.05.8s.77,1.23.77,2.09v4.37h0ZM143.09,47.02h.22v-3.91c0-.74-.21-1.34-.64-1.78-.42-.44-.99-.65-1.72-.65-1.02,0-1.74.42-2.18,1.28v.03c.08-.14.17-.26.28-.38.48-.5,1.1-.75,1.84-.75.69,0,1.23.21,1.62.62.38.41.57.96.57,1.63v3.91h0ZM138.14,47.02h.2v-3.28c0-.54.08-1.01.25-1.4l-.25.48v-1.99h-.2v6.2h0Z"/>
        </g>
        <g>
          <path class="cls-1" d="M152.12,38.42c-1.32-.11-1.99.5-1.99,1.81v.36h1.99v.65h-1.99v6h-.68v-6h-1.14v-.65h1.14v-.36c0-.84.23-1.46.69-1.9.46-.43,1.12-.62,1.98-.55v.64h0Z"/>
          <path class="cls-1" d="M150.37,47.48h-1.14v-6h-1.14v-1.11h1.14v-.13c0-.9.26-1.59.76-2.07.5-.47,1.22-.67,2.15-.62l.21.02v1.11l-.25-.02c-.58-.04-1.04.06-1.31.31s-.41.68-.41,1.26v.13h1.98v1.11h-1.98v6ZM149.69,47.02h.22v-6h1.98v-.19h-1.98v-.59c0-.72.19-1.26.57-1.6.32-.3.78-.45,1.36-.45h.06v-.18c-.68,0-1.22.16-1.58.5-.41.38-.62.97-.62,1.73v.59h-1.14v.19h1.14v6h0Z"/>
        </g>
        <g>
          <path class="cls-1" d="M155.76,47.4c-.97,0-1.8-.33-2.48-1.01s-1.02-1.5-1.02-2.47.34-1.8,1.02-2.47,1.51-1.01,2.48-1.01,1.79.33,2.47,1.01c.68.67,1.02,1.5,1.02,2.47s-.34,1.8-1.02,2.47c-.68.67-1.5,1.01-2.47,1.01h0ZM153.75,45.94c.55.55,1.21.82,2.01.82s1.46-.28,2-.82c.54-.55.81-1.22.81-2.01s-.27-1.46-.81-2.01-1.21-.82-2-.82-1.46.28-2.01.82c-.55.55-.82,1.22-.82,2.01s.27,1.46.82,2.01Z"/>
          <path class="cls-1" d="M155.76,47.63c-1.04,0-1.92-.36-2.65-1.08-.72-.71-1.09-1.6-1.09-2.63s.36-1.92,1.09-2.63c.72-.71,1.61-1.07,2.65-1.07s1.91.36,2.63,1.07,1.09,1.6,1.09,2.63-.36,1.92-1.09,2.63c-.72.71-1.6,1.08-2.63,1.08h0ZM155.76,40.67c-.92,0-1.68.31-2.32.94-.64.64-.95,1.39-.95,2.31s.32,1.69.95,2.31c.64.63,1.4.94,2.32.94s1.67-.31,2.31-.94c.63-.62.95-1.4.95-2.31s-.31-1.67-.95-2.31c-.64-.63-1.4-.94-2.31-.94ZM155.76,46.99c-.85,0-1.58-.3-2.17-.89h0c-.58-.59-.89-1.32-.89-2.18s.3-1.58.89-2.18c.58-.59,1.31-.89,2.17-.89s1.58.3,2.16.89.88,1.33.88,2.18-.3,1.58-.88,2.17c-.58.6-1.31.89-2.16.89h0ZM155.76,41.31c-.74,0-1.33.25-1.84.75s-.75,1.11-.75,1.85.25,1.34.75,1.85h0c.5.51,1.11.76,1.84.76s1.33-.25,1.83-.75c.5-.51.75-1.11.75-1.85s-.25-1.34-.75-1.85c-.5-.51-1.1-.75-1.83-.75h0Z"/>
        </g>
        <g>
          <path class="cls-1" d="M161.51,41.9c.4-.93,1.14-1.4,2.23-1.4v.64c-.63,0-1.16.2-1.58.6s-.64,1.01-.64,1.8v3.7h-.67v-6.66h.67v1.31h0Z"/>
          <path class="cls-1" d="M161.74,47.48h-1.13v-7.12h1.13v.72c.47-.54,1.14-.82,1.99-.82h.23v1.1h-.23c-.57,0-1.04.18-1.43.54-.38.36-.57.91-.57,1.63v3.93h0ZM161.07,47.02h.21v-3.47c0-.23.02-.45.05-.65l-.05.12v-2.19h-.21v6.2ZM163.5,40.74c-.75.05-1.3.38-1.65.98.04-.05.09-.09.13-.14.41-.4.92-.62,1.52-.66v-.18Z"/>
        </g>
        <g>
          <path class="cls-1" d="M171.63,40.45c.97,0,1.77.35,2.38,1.04s.91,1.52.91,2.46c0,.04,0,.09,0,.16,0,.07,0,.13,0,.16h-6.04c.08.75.38,1.35.9,1.8s1.16.69,1.92.69c.53,0,1-.11,1.4-.33.4-.22.7-.52.91-.88l.58.35c-.28.46-.67.83-1.17,1.1s-1.08.41-1.73.41c-1.02,0-1.86-.33-2.51-.98-.66-.65-.99-1.48-.99-2.5s.32-1.82.97-2.48c.64-.66,1.47-.99,2.48-.99h0ZM171.63,41.09c-.75,0-1.38.23-1.89.7-.5.47-.79,1.08-.87,1.82h5.36c-.07-.79-.35-1.41-.85-1.85-.49-.45-1.08-.67-1.75-.67h0Z"/>
          <path class="cls-1" d="M171.68,47.63c-1.08,0-1.98-.35-2.68-1.04-.7-.7-1.06-1.59-1.06-2.66s.35-1.94,1.03-2.65c.69-.7,1.58-1.06,2.65-1.06s1.9.38,2.55,1.12c.64.74.97,1.62.97,2.62,0,.04,0,.1,0,.18,0,.06,0,.11,0,.14v.23h-6c.11.57.36,1.03.79,1.4.48.42,1.06.63,1.77.63.49,0,.92-.1,1.29-.3s.64-.46.82-.79l.11-.21.99.58-.12.2c-.3.5-.72.89-1.26,1.18s-1.16.43-1.84.43h0ZM171.63,40.67c-.96,0-1.72.3-2.32.92-.6.62-.9,1.38-.9,2.33s.3,1.72.92,2.33c.62.62,1.39.91,2.36.91.61,0,1.16-.13,1.62-.38.4-.21.71-.48.96-.82l-.18-.11c-.22.31-.51.57-.87.77-.43.24-.94.36-1.51.36-.82,0-1.52-.25-2.07-.74-.56-.5-.89-1.15-.97-1.96l-.03-.26h6.07v-.09c0-.9-.28-1.65-.86-2.31-.57-.65-1.29-.96-2.21-.96h0ZM174.47,43.84h-5.86l.03-.25c.08-.8.39-1.46.94-1.97s1.24-.77,2.05-.77c.73,0,1.38.25,1.91.73.53.49.84,1.16.92,2.01l.03.25h0ZM169.13,43.38h4.83c-.1-.62-.34-1.09-.74-1.46-.45-.41-.97-.61-1.6-.61-.7,0-1.27.21-1.74.64-.4.38-.66.86-.76,1.43h0Z"/>
        </g>
        <g>
          <path class="cls-1" d="M181.1,40.59h.7l-2.81,6.66h-.81l-2.82-6.66h.72l2.5,5.97,2.51-5.97h0Z"/>
          <path class="cls-1" d="M179.15,47.48h-1.12l-3.02-7.12h1.22l2.35,5.6,2.36-5.6h1.21l-3.01,7.12h0ZM178.64,47.02h.21l2.62-6.2h-.21l-2.61,6.2h0ZM178.33,47.02h.19l-2.6-6.2h-.22l2.63,6.2h0Z"/>
        </g>
        <g>
          <path class="cls-1" d="M185.75,40.45c.97,0,1.77.35,2.38,1.04s.91,1.52.91,2.46c0,.04,0,.09,0,.16,0,.07,0,.13,0,.16h-6.04c.08.75.38,1.35.9,1.8s1.16.69,1.92.69c.53,0,1-.11,1.4-.33.4-.22.7-.52.91-.88l.58.35c-.28.46-.67.83-1.17,1.1s-1.08.41-1.73.41c-1.02,0-1.86-.33-2.51-.98-.66-.65-.99-1.48-.99-2.5s.32-1.82.97-2.48c.64-.66,1.47-.99,2.48-.99h0ZM185.75,41.09c-.75,0-1.38.23-1.89.7-.5.47-.79,1.08-.87,1.82h5.36c-.07-.79-.35-1.41-.85-1.85-.49-.45-1.08-.67-1.75-.67h0Z"/>
          <path class="cls-1" d="M185.8,47.63c-1.08,0-1.98-.35-2.68-1.04-.7-.7-1.06-1.59-1.06-2.66s.35-1.94,1.03-2.65c.69-.7,1.58-1.06,2.65-1.06s1.9.38,2.55,1.12c.64.74.97,1.62.97,2.62v.18c0,.06-.01.11-.01.14v.23h-6c.11.57.36,1.03.79,1.4.47.41,1.07.63,1.77.63.49,0,.92-.1,1.29-.3s.64-.46.82-.79l.11-.2.99.58-.12.2c-.3.5-.72.89-1.26,1.18-.53.29-1.16.43-1.84.43h0ZM185.75,40.67c-.96,0-1.72.3-2.32.92-.6.62-.9,1.38-.9,2.33s.3,1.72.92,2.33c.62.62,1.39.91,2.36.91.61,0,1.16-.13,1.62-.38.4-.21.72-.48.96-.82l-.19-.11c-.22.31-.51.57-.87.77-.43.24-.94.36-1.51.36-.82,0-1.52-.25-2.07-.74-.57-.5-.89-1.15-.97-1.96l-.03-.26h6.07v-.09c0-.9-.28-1.65-.86-2.31-.57-.65-1.29-.96-2.21-.96ZM188.6,43.84h-5.86l.03-.25c.08-.8.39-1.46.94-1.97.55-.51,1.24-.77,2.05-.77.73,0,1.37.25,1.91.73.53.49.84,1.16.92,2.01l.03.25ZM183.25,43.38h4.83c-.1-.62-.34-1.09-.74-1.46-.45-.4-.98-.61-1.6-.61-.7,0-1.27.21-1.74.64-.41.38-.66.85-.76,1.43h0Z"/>
        </g>
        <g>
          <path class="cls-1" d="M191.26,41.9c.4-.93,1.14-1.4,2.23-1.4v.64c-.63,0-1.16.2-1.58.6s-.64,1.01-.64,1.8v3.7h-.67v-6.66h.67v1.31h0Z"/>
          <path class="cls-1" d="M191.49,47.48h-1.13v-7.12h1.13v.72c.47-.54,1.14-.82,1.99-.82h.23v1.1h-.23c-.57,0-1.04.18-1.43.54-.38.36-.57.91-.57,1.63v3.93h0ZM190.82,47.02h.21v-3.47c0-.23.02-.45.05-.65l-.05.12v-2.19h-.21v6.2ZM193.25,40.74c-.75.05-1.3.38-1.65.98.04-.05.09-.09.13-.14.41-.4.92-.62,1.52-.66v-.18Z"/>
        </g>
        <g>
          <path class="cls-1" d="M199.84,40.59h.72l-2.88,7.27c-.26.66-.62,1.18-1.09,1.55s-.99.54-1.55.5v-.63c.43.04.81-.09,1.15-.36.34-.28.62-.68.83-1.19l.14-.36-3.06-6.78h.72l2.69,5.93,2.32-5.93h.01Z"/>
          <path class="cls-1" d="M195.22,50.15c-.06,0-.13,0-.19,0l-.21-.02v-1.09l.25.02c.38.03.69-.08.99-.31.31-.26.57-.62.77-1.1l.11-.27-3.17-7.02h1.23l.06.14,2.46,5.43,2.18-5.56h1.21l-3.01,7.59c-.27.69-.66,1.24-1.16,1.65-.47.37-.97.55-1.51.55h0ZM195.28,49.52v.16c.41-.01.8-.16,1.17-.45.43-.35.78-.84,1.02-1.46l2.75-6.95h-.22l-2.46,6.29-2.85-6.29h-.21l2.96,6.55-.18.45c-.23.55-.53.98-.9,1.28-.32.26-.68.4-1.07.42h0Z"/>
        </g>
        <g>
          <path class="cls-1" d="M208.36,40.45c.79,0,1.41.24,1.89.72.47.48.7,1.13.7,1.94v4.14h-.68v-4.14c0-.62-.17-1.11-.51-1.48s-.82-.55-1.45-.55c-.69,0-1.24.23-1.68.68s-.65,1.11-.65,1.97v3.51h-.67v-6.66h.67v1.26c.48-.94,1.28-1.41,2.38-1.41Z"/>
          <path class="cls-1" d="M211.17,47.48h-1.14v-4.37c0-.57-.14-.99-.45-1.32-.3-.31-.72-.47-1.28-.47-.62,0-1.12.2-1.51.61s-.59,1.02-.59,1.81v3.75h-1.13v-7.12h1.13v.74c.52-.59,1.24-.89,2.16-.89.86,0,1.54.27,2.05.8s.77,1.23.77,2.09v4.37h0ZM210.49,47.02h.22v-3.91c0-.74-.21-1.34-.64-1.78-.42-.44-.99-.65-1.72-.65-1.02,0-1.74.42-2.18,1.28v.03c.08-.14.17-.26.28-.38.48-.5,1.1-.75,1.84-.75.69,0,1.23.21,1.62.62.38.41.57.96.57,1.63v3.91ZM205.54,47.02h.21v-3.28c0-.54.08-1.01.25-1.4l-.25.48v-1.99h-.21v6.2h0Z"/>
        </g>
        <g>
          <path class="cls-1" d="M218.68,40.59h.68v6.66h-.68v-1.5c-.28.52-.67.92-1.17,1.21-.5.3-1.06.44-1.69.44-.95,0-1.76-.33-2.44-1.01-.67-.67-1.01-1.5-1.01-2.47s.34-1.8,1.01-2.47c.67-.67,1.49-1.01,2.44-1.01.63,0,1.19.14,1.69.44.5.3.89.7,1.17,1.21v-1.5h0ZM213.86,45.93c.55.55,1.21.82,2.01.82s1.46-.28,2-.82c.54-.55.81-1.22.81-2.01s-.27-1.46-.81-2.01c-.54-.55-1.21-.82-2-.82s-1.46.28-2.01.82c-.55.55-.82,1.22-.82,2.01s.27,1.46.82,2.01Z"/>
          <path class="cls-1" d="M215.82,47.63c-1.01,0-1.89-.36-2.6-1.08-.72-.71-1.08-1.6-1.08-2.63s.36-1.92,1.08-2.63c.72-.71,1.59-1.07,2.6-1.07.67,0,1.28.16,1.81.47.31.18.59.41.82.68v-1.01h1.14v7.12h-1.14v-1.01c-.23.27-.51.5-.82.68-.53.31-1.14.47-1.81.47h0ZM215.82,40.67c-.89,0-1.64.31-2.28.94s-.94,1.38-.94,2.31.31,1.69.94,2.31c.64.63,1.38.94,2.28.94.58,0,1.11-.14,1.57-.41s.82-.65,1.09-1.13l.43-.79v2.17h.22v-6.2h-.22v2.17l-.43-.79c-.26-.48-.63-.86-1.09-1.13s-.99-.41-1.57-.41h0ZM215.88,46.99c-.85,0-1.58-.3-2.17-.89-.58-.59-.89-1.32-.89-2.17s.3-1.58.89-2.18c.59-.59,1.32-.89,2.17-.89s1.58.3,2.16.89.88,1.33.88,2.18-.3,1.58-.88,2.17c-.58.6-1.31.89-2.16.89ZM215.88,41.31c-.74,0-1.33.25-1.84.75s-.75,1.12-.75,1.85.25,1.34.75,1.85h0c.51.51,1.11.75,1.84.75s1.33-.25,1.83-.75c.5-.51.75-1.11.75-1.85s-.25-1.34-.75-1.85c-.5-.51-1.1-.75-1.83-.75Z"/>
        </g>
        <g>
          <path class="cls-1" d="M224.82,41.25h-1.99v4.33c0,.38.07.66.21.82.14.17.36.26.65.29s.67.01,1.12-.03v.6c-.9.13-1.57.07-2.01-.19s-.66-.75-.66-1.49v-4.33h-1.46v-.65h1.46v-1.67l.68-.2v1.87h1.99v.65h0Z"/>
          <path class="cls-1" d="M223.98,47.55c-.53,0-.95-.09-1.28-.29-.52-.3-.77-.87-.77-1.69v-4.1h-1.46v-1.11h1.46v-1.61l1.14-.33v1.94h1.99v1.11h-1.99v4.1c0,.32.06.55.16.68.1.12.26.19.5.21.28.02.64.01,1.08-.03l.25-.03v1.05l-.19.03c-.32.05-.62.07-.88.07h0ZM220.93,41.01h1.46v4.56c0,.65.18,1.08.55,1.3.36.21.92.28,1.65.18v-.14c-.35.03-.65.03-.91.01-.36-.03-.63-.15-.81-.36-.18-.21-.27-.53-.27-.97v-4.56h1.99v-.19h-1.99v-1.79l-.22.06v1.72h-1.46v.19h0Z"/>
        </g>
        <g>
          <path class="cls-1" d="M227.13,38.82c-.11.1-.23.15-.37.15s-.26-.05-.37-.15c-.11-.1-.16-.23-.16-.38s.06-.26.16-.36c.11-.1.23-.15.37-.15s.26.05.37.15c.11.1.16.23.16.36,0,.15-.05.28-.16.38ZM226.42,47.25v-6.66h.67v6.66h-.67Z"/>
          <path class="cls-1" d="M227.32,47.48h-1.13v-7.12h1.13v7.12ZM226.65,47.02h.21v-6.2h-.21v6.2ZM226.75,39.21c-.2,0-.38-.08-.53-.22-.15-.14-.23-.33-.23-.55,0-.2.08-.38.23-.53.3-.28.77-.28,1.06,0,.15.14.23.33.23.53s-.08.4-.23.55c-.14.14-.33.22-.53.22ZM226.75,38.16c-.08,0-.15.03-.21.09-.06.06-.09.12-.09.2,0,.09.03.16.09.21.13.12.3.13.43,0h0c.06-.06.09-.13.09-.21,0-.08-.03-.14-.09-.2-.06-.06-.13-.09-.21-.09Z"/>
        </g>
        <g>
          <path class="cls-1" d="M232.19,47.4c-.97,0-1.8-.33-2.48-1.01-.68-.67-1.02-1.5-1.02-2.47s.34-1.8,1.02-2.47,1.51-1.01,2.48-1.01,1.79.33,2.47,1.01,1.02,1.5,1.02,2.47-.34,1.8-1.02,2.47-1.5,1.01-2.47,1.01ZM230.18,45.94c.55.55,1.21.82,2.01.82s1.46-.28,2-.82c.54-.55.81-1.22.81-2.01s-.27-1.46-.81-2.01c-.54-.55-1.21-.82-2-.82s-1.46.28-2.01.82c-.55.55-.82,1.22-.82,2.01s.27,1.46.82,2.01Z"/>
          <path class="cls-1" d="M232.19,47.63c-1.04,0-1.92-.36-2.65-1.08-.72-.71-1.09-1.6-1.09-2.63s.36-1.92,1.09-2.63c.72-.71,1.61-1.07,2.65-1.07s1.91.36,2.63,1.07,1.09,1.6,1.09,2.63-.36,1.92-1.09,2.63c-.72.71-1.6,1.08-2.63,1.08ZM232.19,40.67c-.92,0-1.68.31-2.32.94-.64.64-.95,1.39-.95,2.31s.32,1.69.95,2.31c.64.63,1.4.94,2.32.94s1.67-.31,2.31-.94c.63-.62.95-1.4.95-2.31s-.31-1.67-.95-2.31c-.64-.63-1.4-.94-2.31-.94ZM232.19,46.99c-.85,0-1.58-.3-2.17-.89-.58-.59-.89-1.32-.89-2.17s.3-1.58.89-2.18c.59-.59,1.32-.89,2.17-.89s1.58.3,2.16.89.88,1.33.88,2.18-.3,1.58-.88,2.17c-.58.6-1.31.89-2.16.89ZM232.19,41.31c-.74,0-1.33.25-1.84.75s-.75,1.12-.75,1.85.25,1.34.75,1.85h0c.51.51,1.11.75,1.84.75s1.33-.25,1.83-.75c.5-.51.75-1.11.75-1.85s-.25-1.34-.75-1.85c-.5-.51-1.1-.75-1.83-.75Z"/>
        </g>
        <g>
          <path class="cls-1" d="M240.33,40.45c.79,0,1.41.24,1.89.72.47.48.7,1.13.7,1.94v4.14h-.68v-4.14c0-.62-.17-1.11-.51-1.48s-.82-.55-1.45-.55c-.69,0-1.24.23-1.68.68s-.65,1.11-.65,1.97v3.51h-.67v-6.66h.67v1.26c.48-.94,1.28-1.41,2.38-1.41Z"/>
          <path class="cls-1" d="M243.14,47.48h-1.14v-4.37c0-.57-.14-.99-.45-1.32-.3-.31-.72-.47-1.28-.47-.63,0-1.12.2-1.51.61s-.58,1.02-.58,1.81v3.75h-1.13v-7.12h1.13v.74c.52-.59,1.24-.89,2.15-.89.86,0,1.54.27,2.05.8s.77,1.23.77,2.09v4.37h0ZM242.46,47.02h.22v-3.91c0-.75-.21-1.33-.64-1.78-.43-.44-.99-.65-1.72-.65-1.02,0-1.74.42-2.18,1.28h0c.08-.12.18-.25.28-.36.48-.5,1.1-.75,1.84-.75.69,0,1.23.21,1.62.62.38.41.57.96.57,1.63v3.91h0ZM237.51,47.02h.21v-3.28c0-.53.08-1,.25-1.4l-.25.48v-1.99h-.21v6.2h0Z"/>
        </g>
      </g>
    </g>
  </g>
</svg>