<?xml version="1.0" encoding="UTF-8"?>
<svg id="Layer_1" data-name="Layer 1" xmlns="http://www.w3.org/2000/svg" xmlns:xlink="http://www.w3.org/1999/xlink" viewBox="0 0 400 122.24">
  <defs>
    <style>
      .cls-1 {
        fill: url(#linear-gradient-2);
      }

      .cls-2 {
        fill: #fff;
      }

      .cls-3 {
        fill: url(#linear-gradient-5);
      }

      .cls-4 {
        fill: url(#linear-gradient-3);
      }

      .cls-5 {
        fill: url(#linear-gradient);
      }

      .cls-6 {
        fill: url(#linear-gradient-4);
      }
    </style>
    <linearGradient id="linear-gradient" x1="5.9" y1="101.13" x2="28.45" y2="78.7" gradientUnits="userSpaceOnUse">
      <stop offset="0" stop-color="#32b08f"/>
      <stop offset=".31" stop-color="#1d9b70"/>
      <stop offset=".66" stop-color="#0a8753"/>
      <stop offset=".86" stop-color="#038049"/>
    </linearGradient>
    <linearGradient id="linear-gradient-2" x1="45.74" y1="16.7" x2="16.7" y2="107.79" gradientUnits="userSpaceOnUse">
      <stop offset="0" stop-color="#49b175"/>
      <stop offset=".46" stop-color="#21b09b"/>
      <stop offset="1" stop-color="#07a3c1"/>
    </linearGradient>
    <linearGradient id="linear-gradient-3" x1="60.63" y1="22.08" x2="24.26" y2="112.32" gradientUnits="userSpaceOnUse">
      <stop offset="0" stop-color="#49b175"/>
      <stop offset=".46" stop-color="#21b09b"/>
      <stop offset=".92" stop-color="#0e8fa8"/>
    </linearGradient>
    <linearGradient id="linear-gradient-4" x1="50.03" y1="40.19" x2="68.33" y2="106.07" gradientUnits="userSpaceOnUse">
      <stop offset=".06" stop-color="#337e53"/>
      <stop offset=".62" stop-color="#21b09b"/>
      <stop offset=".77" stop-color="#17aba8"/>
      <stop offset=".95" stop-color="#07a3c1"/>
    </linearGradient>
    <linearGradient id="linear-gradient-5" x1="49.72" y1="38.34" x2="76.72" y2="108.96" gradientUnits="userSpaceOnUse">
      <stop offset=".06" stop-color="#337e53"/>
      <stop offset=".62" stop-color="#21b09b"/>
      <stop offset=".75" stop-color="#1ba29a"/>
      <stop offset=".95" stop-color="#0f839a"/>
    </linearGradient>
  </defs>
  <g>
    <path class="cls-5" d="M28.41,89.76c2.18-9.1-.04-20.85-1.62-27.26,.06,.88,.12,1.79,.17,2.77,.81,23.97-21.2,36.9-21.2,36.9,4.69,2.08,9.29,3.21,13.65,3.39,3.1-2.99,7.18-8.15,9.01-15.8Z"/>
    <path class="cls-1" d="M59.67,22.04c-28.37,1.66-18.12,42.56-24.3,64.96-.15,.48-.31,.95-.49,1.41-.06,.15-.11,.31-.18,.46l-.08,.2c-3.09,8-8.68,13.42-12.62,16.47-.86,.04-1.72,.06-2.61,.01,11.06-11.27,9.88-25.59,7.57-39.77-1.65-10.12-3.88-20.18-2.64-29,1.26-7.74,5.37-22.8,18.07-23.35,5.75-.17,11.64,3.18,17.28,8.61Z"/>
    <path class="cls-4" d="M59.67,22.04c-28.37,1.66-18.12,42.56-24.3,64.96-.15,.48-.31,.95-.49,1.41-.06,.15-.11,.31-.18,.46l-.08,.2c-.35,.91-.74,1.77-1.15,2.61-.14,.29-.29,.57-.44,.84-.16,.3-.32,.59-.49,.89-4.89,8.4-12.52,11.76-13.12,12.11-.02,.01-.03,.02-.03,.02,0,0,1.75,.03,2.61-.01,2.54-.12,5-.59,7.31-1.39h0c11.41-3.98,19.63-16.38,20.65-37.74,0,0,1.66-39.74,19.44-32.77-3.09-4.4-6.37-8.37-9.73-11.59Z"/>
    <path class="cls-6" d="M80.21,87.74c1.82-8.92-5.98-30.46-23.48-49.16-6.02,9.6-6.78,27.82-6.78,27.82,9.97,14.63,20.18,29.31-.96,38.71,0,0,28.43-3.69,31.22-17.37Z"/>
    <path class="cls-3" d="M69.4,33.63c-5.74-2.25-9.8,.37-12.67,4.94,17.49,18.7,25.3,40.24,23.48,49.16-2.79,13.68-31.22,17.37-31.22,17.37,0,0,22.59,4.07,35.72-2.35,6.01-2.94,9.2-9.59,8.09-16.19-2.18-12.85-11.53-36.1-23.39-52.95Z"/>
  </g>
  <g>
    <path class="cls-2" d="M163.16,46.59c0,1.33-.25,2.5-.75,3.51-.5,1.01-1.17,1.89-2.01,2.64s-1.81,1.37-2.9,1.87c-1.1,.5-2.24,.9-3.43,1.2-1.19,.3-2.38,.51-3.58,.64s-2.32,.19-3.38,.19c-.81,0-1.61-.01-2.4-.04-.79-.03-1.59-.1-2.4-.2l-.08,9.19-5.29,.04c.03-4.82,0-9.61-.1-14.38-.1-4.77-.18-9.56-.27-14.38,.97-.19,2-.35,3.08-.47s2.17-.22,3.28-.3c1.11-.07,2.21-.13,3.3-.15,1.1-.03,2.14-.04,3.14-.04,1.1,0,2.2,.09,3.31,.27s2.17,.45,3.19,.82,1.97,.84,2.86,1.42c.89,.58,1.66,1.26,2.32,2.05s1.17,1.7,1.55,2.72c.38,1.02,.56,2.16,.56,3.42Zm-16.93-8.62c-.7,0-1.4,.01-2.1,.04-.7,.03-1.41,.08-2.1,.16l.33,16.17c.64,.1,1.29,.15,1.95,.17,.66,.01,1.33,.02,2.01,.02,.92,0,1.83-.05,2.74-.17,.91-.11,1.78-.29,2.6-.54,.82-.25,1.58-.59,2.28-1,.7-.42,1.3-.94,1.82-1.56s.91-1.35,1.2-2.18c.29-.83,.43-1.79,.43-2.88,0-1.01-.16-1.92-.47-2.72s-.74-1.51-1.28-2.11c-.54-.61-1.17-1.13-1.9-1.56s-1.5-.78-2.32-1.06c-.82-.27-1.67-.47-2.56-.6-.88-.12-1.75-.18-2.62-.18Z"/>
    <path class="cls-2" d="M118.39,34.85c1.86,0,3.5,.33,4.9,.97,1.41,.65,2.63,1.53,3.65,2.63,1.03,1.1,1.89,2.37,2.58,3.82,.69,1.44,1.24,2.95,1.65,4.54,.41,1.58,.7,3.18,.87,4.8,.17,1.62,.26,3.16,.26,4.61,0,1.27-.08,2.49-.25,3.65-.17,1.16-.34,2.2-.53,3.12-.23,1.07-.49,2.07-.78,3.02l-6.22-1.11c.4-.94,.77-2.02,1.12-3.22,.35-1.2,.66-2.44,.93-3.69-1.66-.15-3.31-.25-4.96-.29s-3.29-.06-4.92-.06c-1.27,0-2.55,0-3.82,.02-1.27,.01-2.55,.06-3.84,.14,.27,1.16,.59,2.33,.96,3.49,.37,1.16,.79,2.35,1.27,3.57l-6.49,1.19c-.3-.63-.58-1.36-.82-2.2-.2-.71-.39-1.58-.56-2.6-.17-1.02-.26-2.17-.26-3.46,0-1.68,.07-3.42,.22-5.2s.41-3.53,.8-5.22,.94-3.3,1.64-4.82c.71-1.52,1.62-2.85,2.75-3.99,1.13-1.14,2.5-2.05,4.1-2.71,1.61-.66,3.51-1,5.72-1Zm-10.22,14.59c0,1.14,.04,2.23,.12,3.29,.08,1.06,.21,2.1,.39,3.13,1.37,.08,2.73,.13,4.1,.14s2.74,.02,4.14,.02c1.66,0,3.32-.01,5-.03s3.36-.09,5.06-.22c.25-1.52,.37-2.95,.37-4.29,0-.97-.07-2-.22-3.1s-.37-2.18-.69-3.25c-.31-1.07-.72-2.1-1.22-3.09-.5-.98-1.11-1.85-1.84-2.6-.73-.75-1.57-1.34-2.52-1.78-.95-.44-2.03-.67-3.23-.67-1.11,0-2.11,.18-3,.53s-1.69,.84-2.39,1.46c-.71,.61-1.31,1.33-1.83,2.14s-.93,1.68-1.26,2.61c-.33,.92-.57,1.87-.74,2.84-.16,.97-.25,1.92-.25,2.85Z"/>
    <path class="cls-2" d="M194.01,46.59c0,1.33-.25,2.5-.75,3.51s-1.17,1.89-2.01,2.64c-.84,.75-1.81,1.37-2.9,1.87-1.1,.5-2.24,.9-3.43,1.2-1.19,.3-2.38,.51-3.58,.64-1.2,.12-2.32,.19-3.38,.19-.81,0-1.61-.01-2.4-.04-.8-.03-1.6-.1-2.4-.2l-.08,9.19-5.29,.04c.03-4.82,0-9.61-.1-14.38-.1-4.77-.18-9.56-.27-14.38,.97-.19,2-.35,3.08-.47,1.08-.12,2.18-.22,3.29-.3,1.11-.07,2.21-.13,3.3-.15,1.09-.03,2.14-.04,3.14-.04,1.09,0,2.2,.09,3.3,.27,1.11,.18,2.17,.45,3.19,.82,1.02,.37,1.97,.84,2.86,1.42,.89,.58,1.66,1.26,2.32,2.05,.66,.79,1.17,1.7,1.55,2.72,.38,1.02,.57,2.16,.57,3.42Zm-16.93-8.62c-.7,0-1.4,.01-2.1,.04-.71,.03-1.41,.08-2.1,.16l.33,16.17c.64,.1,1.29,.15,1.95,.17,.66,.01,1.33,.02,2.01,.02,.92,0,1.83-.05,2.74-.17,.91-.11,1.78-.29,2.6-.54,.82-.25,1.58-.59,2.28-1,.7-.42,1.3-.94,1.82-1.56s.91-1.35,1.2-2.18c.29-.83,.43-1.79,.43-2.88,0-1.01-.16-1.92-.47-2.72-.32-.8-.74-1.51-1.28-2.11s-1.17-1.13-1.9-1.56c-.72-.43-1.5-.78-2.32-1.06-.82-.27-1.67-.47-2.55-.6s-1.75-.18-2.62-.18Z"/>
    <path class="cls-2" d="M210.18,66.81c-1.6,0-3.1-.2-4.49-.6-1.4-.4-2.67-.99-3.82-1.78-1.15-.79-2.16-1.79-3.05-2.98-.88-1.19-1.61-2.57-2.17-4.15l7.1-.39c.11,2.52,.83,4.44,2.16,5.76,1.33,1.32,3.2,1.98,5.62,1.98,.95,0,1.89-.1,2.83-.29,.95-.19,1.79-.52,2.54-.97,.75-.46,1.35-1.06,1.83-1.82,.47-.75,.71-1.69,.71-2.81,0-.78-.15-1.45-.45-2-.3-.55-.7-1.02-1.2-1.39-.5-.37-1.07-.67-1.72-.89-.65-.22-1.32-.4-2.01-.53-.69-.13-1.38-.23-2.06-.3s-1.31-.13-1.89-.18c-.93-.07-1.9-.18-2.91-.33-1.01-.15-2.01-.36-2.99-.64-.98-.27-1.91-.62-2.8-1.05-.89-.42-1.67-.96-2.34-1.61-.67-.65-1.2-1.42-1.6-2.31-.4-.89-.6-1.94-.6-3.14s.19-2.19,.57-3.12c.38-.93,.91-1.75,1.57-2.47,.66-.72,1.43-1.34,2.3-1.87s1.79-.96,2.77-1.29,1.98-.59,3.01-.75,2.02-.25,2.98-.25,1.99,.06,3.07,.19c1.07,.12,2.15,.33,3.21,.61,1.07,.29,2.1,.66,3.09,1.12s1.89,1.02,2.69,1.69,1.47,1.45,2,2.35c.53,.9,.88,1.92,1.05,3.07l-6.86,1.39c.08-.51,.12-1.03,.12-1.56,0-1.24-.25-2.3-.76-3.16-.51-.86-1.18-1.56-2.01-2.08-.83-.53-1.78-.91-2.83-1.14-1.05-.23-2.13-.35-3.22-.35-.97,0-1.93,.13-2.88,.38-.95,.25-1.81,.63-2.57,1.14-.76,.51-1.37,1.14-1.84,1.91s-.7,1.67-.7,2.71c0,.71,.19,1.33,.57,1.85s.89,.97,1.51,1.34c.62,.38,1.32,.69,2.11,.93s1.56,.45,2.35,.61,1.54,.28,2.25,.37,1.31,.15,1.81,.19c.88,.1,1.79,.23,2.75,.4,.96,.17,1.9,.41,2.83,.71,.93,.3,1.82,.68,2.67,1.13,.85,.45,1.59,1,2.23,1.64,.64,.64,1.14,1.4,1.52,2.26,.38,.86,.56,1.85,.56,2.96,0,1.18-.23,2.23-.7,3.15-.47,.92-1.08,1.74-1.86,2.44-.77,.71-1.66,1.31-2.66,1.81s-2.04,.9-3.12,1.21c-1.08,.31-2.16,.53-3.24,.68-1.08,.14-2.09,.22-3.02,.22Z"/>
    <path class="cls-2" d="M258.91,36.12c0,1.1-.01,2.12-.03,3.08s-.05,2.08-.09,3.38c-.04,1.29-.1,2.69-.17,4.2-.08,1.51-.17,3.07-.28,4.7-.11,1.63-.25,3.25-.42,4.88-.17,1.62-.37,3.2-.58,4.74-.22,1.54-.48,2.97-.78,4.28l-3.92,.16c-.68-1.03-1.45-2.19-2.3-3.49-.85-1.3-1.73-2.66-2.66-4.09-.92-1.43-1.86-2.89-2.81-4.37-.95-1.48-1.86-2.92-2.74-4.32-2.07-3.27-4.19-6.64-6.38-10.12-.07,3.72-.12,7.27-.14,10.63-.01,1.44-.02,2.9-.02,4.39s0,2.93,.01,4.31,.03,2.67,.06,3.86c.03,1.19,.08,2.2,.13,3.04l-4.37,.55c-.22-1.15-.4-2.46-.55-3.92-.15-1.46-.28-3-.38-4.62-.1-1.61-.18-3.26-.24-4.94-.05-1.68-.1-3.31-.12-4.9-.05-3.71-.05-7.53,0-11.47l8.19-.64,14.68,25.47c.15-1.78,.24-3.69,.27-5.74,.03-2.05,0-4.16-.07-6.33-.08-2.18-.2-4.38-.38-6.61-.18-2.23-.4-4.43-.66-6.59l6.77,.47Z"/>
    <path class="cls-2" d="M279.13,34.85c1.86,0,3.5,.33,4.9,.97,1.41,.65,2.63,1.53,3.65,2.63,1.03,1.1,1.89,2.37,2.58,3.82,.69,1.44,1.24,2.95,1.65,4.54,.41,1.58,.7,3.18,.87,4.8,.17,1.62,.26,3.16,.26,4.61,0,1.27-.08,2.49-.25,3.65-.17,1.16-.34,2.2-.53,3.12-.23,1.07-.49,2.07-.78,3.02l-6.22-1.11c.4-.94,.77-2.02,1.12-3.22,.35-1.2,.66-2.44,.93-3.69-1.66-.15-3.31-.25-4.96-.29s-3.29-.06-4.92-.06c-1.27,0-2.55,0-3.82,.02-1.27,.01-2.55,.06-3.84,.14,.27,1.16,.59,2.33,.96,3.49,.37,1.16,.79,2.35,1.27,3.57l-6.49,1.19c-.3-.63-.58-1.36-.82-2.2-.2-.71-.39-1.58-.56-2.6-.17-1.02-.26-2.17-.26-3.46,0-1.68,.07-3.42,.22-5.2,.14-1.79,.41-3.53,.8-5.22,.39-1.7,.94-3.3,1.64-4.82,.71-1.52,1.62-2.85,2.75-3.99,1.13-1.14,2.5-2.05,4.1-2.71,1.61-.66,3.51-1,5.72-1Zm-10.22,14.59c0,1.14,.04,2.23,.12,3.29,.08,1.06,.21,2.1,.39,3.13,1.37,.08,2.73,.13,4.1,.14s2.74,.02,4.14,.02c1.66,0,3.32-.01,5-.03s3.36-.09,5.06-.22c.25-1.52,.37-2.95,.37-4.29,0-.97-.07-2-.22-3.1-.14-1.1-.37-2.18-.69-3.25-.31-1.07-.72-2.1-1.22-3.09-.5-.98-1.11-1.85-1.84-2.6-.73-.75-1.57-1.34-2.52-1.78-.95-.44-2.03-.67-3.23-.67-1.11,0-2.11,.18-3,.53s-1.69,.84-2.39,1.46c-.71,.61-1.31,1.33-1.83,2.14s-.93,1.68-1.26,2.61c-.33,.92-.57,1.87-.74,2.84-.16,.97-.25,1.92-.25,2.85Z"/>
    <path class="cls-2" d="M322.21,35.81l-.25,4c-.7-.25-1.51-.44-2.43-.59-.92-.14-1.87-.26-2.84-.34-.97-.08-1.92-.14-2.85-.16-.93-.03-1.76-.04-2.5-.04h-.56l1.19,26.77h-6.3l.74-26.56c-1.01,.08-2.05,.19-3.11,.34-1.06,.14-2.08,.32-3.06,.53s-1.89,.46-2.72,.75c-.84,.29-1.53,.62-2.07,.99l-.39-5.52,27.16-.17Z"/>
    <path class="cls-2" d="M331.59,35.61l-1.05,29.72-4.15,.08-.84-29.43,6.03-.37Z"/>
    <path class="cls-2" d="M391.1,36.12c0,1.1-.01,2.12-.03,3.08s-.05,2.08-.09,3.38-.1,2.69-.18,4.2c-.07,1.51-.17,3.07-.28,4.7-.11,1.63-.25,3.25-.42,4.88-.17,1.62-.37,3.2-.59,4.74-.22,1.54-.48,2.97-.78,4.28l-3.92,.16c-.68-1.03-1.45-2.19-2.3-3.49-.85-1.3-1.73-2.66-2.66-4.09-.92-1.43-1.86-2.89-2.81-4.37-.95-1.48-1.86-2.92-2.74-4.32-2.07-3.27-4.19-6.64-6.38-10.12-.07,3.72-.12,7.27-.14,10.63-.01,1.44-.02,2.9-.02,4.39s0,2.93,.01,4.31c0,1.38,.03,2.67,.06,3.86,.04,1.19,.08,2.2,.13,3.04l-4.37,.55c-.22-1.15-.4-2.46-.55-3.92-.15-1.46-.28-3-.38-4.62s-.18-3.26-.24-4.94c-.05-1.68-.1-3.31-.12-4.9-.05-3.71-.05-7.53,0-11.47l8.19-.64,14.68,25.47c.15-1.78,.24-3.69,.27-5.74,.03-2.05,0-4.16-.07-6.33s-.2-4.38-.38-6.61c-.18-2.23-.4-4.43-.66-6.59l6.77,.47Z"/>
    <g>
      <g>
        <path class="cls-2" d="M353.64,60.92l-1.22,1.23h-11.74l-.64-1.56v-.16c-.76-.12-1.44-.3-2.03-.55v3.9l.84,1.52h15.24l1.58-1.59v-6.63c-.63,.35-1.31,.7-2.03,1.03v2.81Z"/>
        <path class="cls-2" d="M353.64,54.1c.78-.46,1.46-.95,2.03-1.45v-5.42c-.63,.35-1.31,.7-2.03,1.03v5.85Z"/>
        <path class="cls-2" d="M354.94,34.52h-16.38l-.55,1.57v9.62c.34,.56,1.05,.98,2.03,1.26v-7.7l.42-1.2h12.6l.57,1.25v4.93c.78-.46,1.46-.95,2.03-1.45v-6.64l-.74-1.64Z"/>
      </g>
      <path class="cls-2" d="M338.01,43.1l.32,.27c-.13,.2-.25,.4-.32,.58v-.85Z"/>
      <path class="cls-2" d="M342.6,50.05c-3.52,0-5.97-.98-6.54-2.62-.38-1.08,.07-2.38,1.28-3.71-.24,.55-.31,1.08-.22,1.57,.3,1.69,2.45,2.69,5.75,2.69,1.78,0,3.79-.3,5.8-.88,4.32-1.24,7.89-3.49,9.09-5.73,.42-.78,.52-1.52,.31-2.18-.18-.57-.6-1.07-1.22-1.45,1.93,.42,3.16,1.29,3.49,2.46,.8,2.92-4.08,6.87-10.87,8.81-2.37,.68-4.75,1.04-6.88,1.04Z"/>
      <path class="cls-2" d="M338.01,50.03v5.52c.34,.56,1.05,.99,2.03,1.26v-6.24c-.76-.12-1.44-.29-2.03-.54Z"/>
      <path class="cls-2" d="M342.6,59.9c-3.52,0-5.97-.98-6.54-2.62-.38-1.08,.07-2.38,1.28-3.71-.24,.55-.31,1.08-.22,1.56,.3,1.69,2.45,2.7,5.75,2.7,1.78,0,3.79-.3,5.8-.88,4.32-1.24,7.89-3.49,9.09-5.73,.42-.78,.52-1.52,.31-2.18-.18-.57-.6-1.07-1.22-1.46,1.93,.42,3.16,1.28,3.49,2.46,.8,2.92-4.08,6.88-10.87,8.81-2.37,.68-4.75,1.04-6.88,1.04Z"/>
    </g>
    <circle class="cls-2" cx="346.85" cy="63.69" r="1.32"/>
    <g>
      <g>
        <path class="cls-2" d="M114.66,88.39l-1.44-3.77h-7.44l-1.44,3.77h-1.19l5.76-14.83h1.19l5.74,14.83h-1.19Zm-8.45-4.83h6.61l-3.31-8.62-3.3,8.62Z"/>
        <path class="cls-2" d="M116.38,88.76h-1.97l-1.44-3.77h-6.93l-1.44,3.77h-1.97l6.05-15.56h1.69l.09,.23,5.93,15.33Zm-1.47-.73h.4l-5.46-14.09h-.34l3.83,10h-7.68l3.83-10h-.34l-5.48,14.09h.4l1.44-3.77h7.94l1.44,3.77Zm-8.17-4.83h5.55l-2.77-7.23-2.77,7.23Z"/>
      </g>
      <g>
        <path class="cls-2" d="M123.41,77.57c1.53,0,2.82,.53,3.89,1.6,1.07,1.07,1.6,2.38,1.6,3.93s-.53,2.86-1.6,3.93c-1.07,1.07-2.36,1.6-3.89,1.6-1,0-1.9-.24-2.7-.72-.8-.48-1.42-1.14-1.85-1.97v6.69h-1.06v-14.83h1.06v2.46c.44-.83,1.06-1.49,1.85-1.97,.8-.48,1.7-.72,2.7-.72Zm-3.25,8.73c.87,.88,1.93,1.31,3.19,1.31s2.32-.44,3.19-1.31c.87-.88,1.3-1.94,1.3-3.2s-.43-2.32-1.3-3.2-1.93-1.31-3.19-1.31-2.32,.44-3.19,1.31-1.3,1.94-1.3,3.2,.43,2.32,1.3,3.2Z"/>
        <path class="cls-2" d="M119.22,92.99h-1.79v-15.56h1.79v1.63c.37-.43,.8-.79,1.3-1.09,.85-.51,1.82-.77,2.89-.77,1.62,0,3.01,.57,4.15,1.7,1.13,1.14,1.71,2.54,1.71,4.19s-.58,3.05-1.71,4.19c-1.13,1.13-2.53,1.71-4.15,1.71-1.07,0-2.04-.26-2.89-.77-.5-.3-.93-.66-1.3-1.09v5.87Zm-1.06-.73h.32v-7.81l.69,1.31c.41,.77,.98,1.38,1.72,1.83s1.58,.67,2.51,.67c1.44,0,2.62-.49,3.63-1.49,.99-.99,1.49-2.22,1.49-3.67s-.49-2.66-1.49-3.67c-1-1-2.19-1.49-3.63-1.49-.93,0-1.78,.22-2.51,.66-.74,.45-1.32,1.06-1.72,1.83l-.69,1.32v-3.58h-.32v14.09Zm5.18-4.28c-1.36,0-2.51-.48-3.45-1.42-.94-.94-1.41-2.1-1.41-3.45s.47-2.51,1.41-3.46c.93-.94,2.09-1.42,3.45-1.42s2.51,.48,3.45,1.42c.94,.94,1.41,2.11,1.41,3.46s-.47,2.51-1.41,3.45c-.93,.95-2.09,1.42-3.45,1.42Zm0-9.02c-1.15,0-2.13,.41-2.93,1.2-.81,.82-1.2,1.78-1.2,2.94s.39,2.13,1.2,2.94h0c.8,.81,1.76,1.2,2.93,1.2s2.12-.39,2.93-1.2c.81-.81,1.2-1.77,1.2-2.94s-.39-2.13-1.2-2.94c-.79-.8-1.78-1.2-2.93-1.2Z"/>
      </g>
      <g>
        <path class="cls-2" d="M137.07,77.57c1.53,0,2.82,.53,3.89,1.6s1.6,2.38,1.6,3.93-.53,2.86-1.6,3.93c-1.07,1.07-2.36,1.6-3.89,1.6-1,0-1.9-.24-2.7-.72-.8-.48-1.42-1.14-1.85-1.97v6.69h-1.06v-14.83h1.06v2.46c.44-.83,1.06-1.49,1.85-1.97,.8-.48,1.7-.72,2.7-.72Zm-3.25,8.73c.87,.88,1.93,1.31,3.19,1.31s2.32-.44,3.19-1.31c.87-.88,1.3-1.94,1.3-3.2s-.43-2.32-1.3-3.2c-.87-.88-1.93-1.31-3.19-1.31s-2.32,.44-3.19,1.31-1.3,1.94-1.3,3.2,.43,2.32,1.3,3.2Z"/>
        <path class="cls-2" d="M132.89,92.99h-1.79v-15.56h1.79v1.63c.37-.43,.8-.79,1.3-1.09,.85-.51,1.82-.77,2.89-.77,1.62,0,3.02,.57,4.15,1.7,1.13,1.13,1.71,2.54,1.71,4.19s-.58,3.06-1.71,4.19-2.53,1.71-4.15,1.71c-1.07,0-2.04-.26-2.89-.77-.5-.3-.93-.66-1.3-1.09v5.87Zm-1.06-.73h.33v-7.82l.69,1.32c.4,.77,.98,1.38,1.72,1.83s1.58,.67,2.51,.67c1.44,0,2.63-.49,3.63-1.49,.99-.99,1.49-2.22,1.49-3.67s-.49-2.67-1.49-3.67c-1-1-2.19-1.49-3.63-1.49-.93,0-1.78,.22-2.51,.66-.74,.45-1.32,1.06-1.71,1.83l-.69,1.32v-3.59h-.33v14.09Zm5.18-4.28c-1.35,0-2.51-.48-3.45-1.42-.93-.94-1.41-2.1-1.41-3.45s.47-2.51,1.41-3.46c.94-.94,2.1-1.42,3.45-1.42s2.51,.48,3.45,1.42c.93,.94,1.41,2.1,1.41,3.46s-.47,2.51-1.41,3.45c-.93,.95-2.1,1.42-3.45,1.42Zm0-9.02c-1.16,0-2.12,.39-2.93,1.2-.81,.81-1.19,1.78-1.19,2.94s.39,2.13,1.19,2.94h0c.81,.81,1.76,1.2,2.93,1.2s2.12-.39,2.93-1.2,1.19-1.77,1.19-2.94-.39-2.13-1.19-2.94c-.81-.81-1.76-1.2-2.93-1.2Z"/>
      </g>
      <g>
        <path class="cls-2" d="M145.63,80.58c0,.52,.22,.93,.66,1.23,.44,.3,.97,.52,1.61,.67s1.27,.31,1.9,.5c.63,.18,1.16,.49,1.6,.92,.44,.43,.66,1.01,.66,1.73,0,.88-.35,1.6-1.05,2.16-.7,.56-1.61,.85-2.74,.85-1.02,0-1.87-.22-2.57-.65-.7-.43-1.18-1-1.45-1.71l.91-.53c.2,.58,.57,1.03,1.11,1.37,.54,.33,1.21,.5,2,.5s1.44-.17,1.96-.52c.52-.35,.77-.84,.77-1.47,0-.52-.22-.94-.66-1.25-.44-.31-.97-.54-1.61-.69s-1.27-.31-1.9-.5c-.63-.18-1.16-.49-1.6-.91-.44-.42-.66-.99-.66-1.69,0-.85,.34-1.56,1.01-2.14,.67-.58,1.54-.87,2.59-.87,.85,0,1.58,.19,2.21,.57,.63,.38,1.09,.9,1.39,1.55l-.89,.51c-.21-.52-.56-.92-1.06-1.2-.49-.28-1.05-.41-1.65-.41-.72,0-1.32,.18-1.81,.54-.49,.36-.73,.84-.73,1.45Z"/>
        <path class="cls-2" d="M148.26,88.99c-1.09,0-2.02-.24-2.77-.7-.77-.47-1.3-1.11-1.6-1.89l-.11-.29,1.56-.91,.15,.42c.17,.5,.48,.88,.96,1.17,.48,.3,1.09,.45,1.81,.45s1.3-.15,1.76-.46c.42-.28,.61-.65,.61-1.17,0-.41-.16-.71-.5-.95-.39-.28-.89-.49-1.48-.63-.64-.15-1.28-.32-1.91-.5-.69-.2-1.27-.53-1.75-1-.51-.49-.77-1.15-.77-1.96,0-.96,.38-1.77,1.13-2.42,.73-.63,1.69-.96,2.84-.96,.91,0,1.72,.21,2.4,.62,.69,.42,1.21,1,1.53,1.71l.14,.31-1.54,.88-.16-.39c-.18-.45-.47-.78-.9-1.01-.44-.24-.93-.37-1.47-.37-.65,0-1.17,.15-1.59,.47-.39,.29-.58,.67-.58,1.16,0,.4,.16,.7,.49,.92,.4,.27,.9,.48,1.49,.61,.64,.15,1.28,.32,1.91,.5,.69,.2,1.28,.54,1.76,1.01,.51,.5,.76,1.17,.76,1.98,0,.99-.4,1.81-1.18,2.45-.76,.62-1.76,.93-2.97,.93Zm-3.56-2.57c.25,.5,.64,.91,1.18,1.24,.63,.39,1.44,.59,2.38,.59,1.04,0,1.88-.26,2.51-.77,.61-.49,.91-1.11,.91-1.87,0-.62-.18-1.1-.55-1.46-.39-.38-.88-.66-1.45-.83-.62-.18-1.25-.35-1.88-.49-.68-.16-1.26-.4-1.73-.72-.53-.36-.82-.89-.82-1.53,0-.73,.3-1.31,.88-1.75,.55-.41,1.23-.61,2.03-.61,.67,0,1.28,.16,1.83,.46,.44,.25,.79,.59,1.04,1.01l.25-.14c-.26-.45-.62-.81-1.09-1.09-.56-.34-1.24-.52-2.02-.52-.97,0-1.76,.26-2.36,.78-.59,.51-.88,1.12-.88,1.86,0,.61,.18,1.08,.55,1.43,.4,.39,.87,.66,1.45,.83,.62,.18,1.25,.34,1.88,.49,.68,.16,1.27,.41,1.74,.75,.54,.38,.81,.9,.81,1.55,0,.76-.31,1.36-.93,1.78-.57,.39-1.3,.58-2.16,.58s-1.6-.19-2.19-.55c-.48-.3-.85-.68-1.1-1.15l-.27,.16Z"/>
      </g>
      <g>
        <path class="cls-2" d="M160.99,80.58c0,.52,.22,.93,.66,1.23,.44,.3,.97,.52,1.61,.67s1.27,.31,1.9,.5c.63,.18,1.16,.49,1.6,.92,.44,.43,.66,1.01,.66,1.73,0,.88-.35,1.6-1.05,2.16-.7,.56-1.61,.85-2.74,.85-1.02,0-1.87-.22-2.57-.65-.7-.43-1.18-1-1.45-1.71l.91-.53c.2,.58,.57,1.03,1.11,1.37,.54,.33,1.21,.5,2,.5s1.44-.17,1.96-.52c.52-.35,.77-.84,.77-1.47,0-.52-.22-.94-.66-1.25-.44-.31-.97-.54-1.61-.69s-1.27-.31-1.9-.5c-.63-.18-1.16-.49-1.6-.91-.44-.42-.66-.99-.66-1.69,0-.85,.34-1.56,1.01-2.14,.67-.58,1.54-.87,2.59-.87,.85,0,1.58,.19,2.21,.57,.63,.38,1.09,.9,1.39,1.55l-.89,.51c-.21-.52-.56-.92-1.06-1.2-.49-.28-1.05-.41-1.65-.41-.72,0-1.32,.18-1.81,.54-.49,.36-.73,.84-.73,1.45Z"/>
        <path class="cls-2" d="M163.61,88.99c-1.09,0-2.02-.24-2.77-.7-.76-.47-1.3-1.11-1.6-1.89l-.11-.29,1.57-.91,.14,.43c.17,.5,.48,.88,.96,1.17,.48,.3,1.09,.45,1.81,.45s1.3-.15,1.76-.46c.42-.28,.61-.65,.61-1.17,0-.41-.16-.71-.5-.95-.4-.28-.9-.49-1.48-.63-.64-.15-1.28-.32-1.91-.5-.69-.2-1.27-.53-1.75-1-.51-.49-.77-1.15-.77-1.96,0-.95,.38-1.77,1.13-2.42,.73-.63,1.69-.96,2.84-.96,.91,0,1.72,.21,2.4,.62,.69,.42,1.2,.99,1.53,1.71l.14,.31-1.54,.88-.16-.39c-.18-.45-.47-.78-.9-1.01-.45-.25-.93-.37-1.48-.37-.65,0-1.17,.15-1.59,.47-.39,.29-.58,.67-.58,1.16,0,.4,.16,.7,.49,.92,.4,.27,.9,.48,1.49,.61,.64,.15,1.28,.32,1.91,.5,.69,.2,1.28,.54,1.76,1.01,.51,.5,.77,1.17,.77,1.98,0,.99-.4,1.81-1.19,2.45-.76,.62-1.76,.93-2.97,.93Zm-3.56-2.57c.25,.5,.64,.91,1.18,1.24,.63,.39,1.43,.59,2.38,.59,1.04,0,1.89-.26,2.51-.77,.62-.49,.91-1.11,.91-1.87,0-.62-.18-1.1-.55-1.46-.39-.39-.87-.66-1.44-.83-.62-.18-1.25-.35-1.88-.49-.68-.16-1.26-.4-1.73-.72-.53-.36-.82-.89-.82-1.53,0-.73,.3-1.31,.88-1.75,.55-.41,1.23-.61,2.03-.61,.66,0,1.28,.16,1.83,.46,.44,.25,.79,.59,1.03,1.01l.25-.14c-.26-.45-.62-.81-1.09-1.09-.57-.34-1.25-.52-2.02-.52-.97,0-1.76,.26-2.36,.78-.59,.51-.88,1.12-.88,1.86,0,.61,.18,1.08,.55,1.43,.4,.39,.87,.66,1.45,.83,.62,.18,1.25,.34,1.88,.49,.68,.16,1.26,.41,1.74,.75,.54,.38,.81,.9,.81,1.55,0,.76-.32,1.36-.94,1.78-.57,.38-1.3,.58-2.16,.58s-1.59-.19-2.19-.55c-.48-.3-.85-.68-1.1-1.15l-.27,.16Z"/>
      </g>
      <g>
        <path class="cls-2" d="M174.5,88.63c-1.55,0-2.87-.53-3.95-1.6-1.08-1.07-1.62-2.38-1.62-3.93s.54-2.86,1.62-3.93c1.08-1.07,2.4-1.6,3.95-1.6s2.85,.53,3.93,1.6c1.08,1.07,1.62,2.38,1.62,3.93s-.54,2.86-1.62,3.93c-1.08,1.07-2.39,1.6-3.93,1.6Zm-3.19-2.33c.87,.88,1.93,1.31,3.19,1.31s2.32-.44,3.18-1.31c.86-.88,1.29-1.94,1.29-3.2s-.43-2.32-1.29-3.2c-.86-.88-1.92-1.31-3.18-1.31s-2.32,.44-3.19,1.31c-.87,.88-1.3,1.94-1.3,3.2s.43,2.32,1.3,3.2Z"/>
        <path class="cls-2" d="M174.5,88.99c-1.65,0-3.06-.57-4.21-1.71-1.15-1.13-1.73-2.54-1.73-4.19s.58-3.06,1.73-4.19c1.15-1.13,2.56-1.7,4.21-1.7s3.04,.57,4.19,1.7c1.15,1.13,1.73,2.54,1.73,4.19s-.58,3.06-1.73,4.19c-1.14,1.13-2.56,1.71-4.19,1.71Zm0-11.06c-1.47,0-2.67,.49-3.69,1.49-1.02,1.01-1.51,2.21-1.51,3.67s.51,2.68,1.51,3.67c1.02,1,2.23,1.49,3.69,1.49s2.67-.5,3.67-1.49c1-.99,1.51-2.22,1.51-3.67s-.49-2.66-1.51-3.67c-1-.99-2.24-1.49-3.67-1.49Zm0,10.04c-1.35,0-2.51-.48-3.45-1.42-.94-.94-1.41-2.1-1.41-3.45s.47-2.51,1.41-3.46,2.1-1.42,3.45-1.42,2.51,.48,3.44,1.42c.93,.94,1.4,2.1,1.4,3.46s-.47,2.51-1.4,3.45c-.93,.95-2.08,1.42-3.44,1.42Zm0-9.02c-1.16,0-2.12,.39-2.93,1.2-.81,.82-1.2,1.78-1.2,2.94s.39,2.13,1.2,2.94h0c.81,.81,1.76,1.2,2.93,1.2s2.12-.39,2.91-1.2c.8-.81,1.19-1.77,1.19-2.94s-.39-2.13-1.19-2.94c-.8-.81-1.75-1.2-2.92-1.2Z"/>
      </g>
      <g>
        <path class="cls-2" d="M182.59,88.39v-15.46h1.06v15.46h-1.06Z"/>
        <path class="cls-2" d="M184.02,88.76h-1.79v-16.2h1.79v16.2Zm-1.06-.73h.32v-14.73h-.32v14.73Z"/>
      </g>
      <g>
        <path class="cls-2" d="M194.54,77.8h1.06v10.59h-1.06v-2.01c-.76,1.5-2.03,2.25-3.79,2.25-1.26,0-2.26-.39-3-1.15-.74-.77-1.11-1.8-1.11-3.08v-6.59h1.08v6.59c0,.99,.27,1.77,.82,2.35,.54,.58,1.31,.87,2.3,.87,1.09,0,1.98-.36,2.67-1.08,.69-.72,1.04-1.77,1.04-3.14v-5.59Z"/>
        <path class="cls-2" d="M190.75,88.99c-1.36,0-2.45-.43-3.26-1.27-.81-.84-1.21-1.96-1.21-3.34v-6.95h1.81v6.95c0,.9,.23,1.59,.72,2.1,.48,.51,1.14,.75,2.03,.75,.99,0,1.78-.32,2.4-.97,.62-.65,.93-1.62,.93-2.88v-5.96h1.79v11.32h-1.79v-1.18c-.83,.94-1.98,1.41-3.42,1.41Zm-3.74-10.82v6.22c0,1.2,.33,2.12,1.01,2.83,.68,.7,1.57,1.04,2.73,1.04,1.63,0,2.76-.67,3.46-2.04l.02-.03c-.14,.22-.29,.42-.46,.6-.76,.79-1.75,1.19-2.93,1.19-1.09,0-1.95-.33-2.57-.99-.61-.64-.91-1.52-.91-2.6v-6.22h-.35Zm7.9,9.86h.33v-9.86h-.33v5.22c0,.86-.13,1.6-.39,2.23l.39-.77v3.17Z"/>
      </g>
      <g>
        <path class="cls-2" d="M204.28,78.84h-3.16v6.88c0,.61,.11,1.05,.34,1.31,.23,.27,.57,.42,1.04,.46,.47,.04,1.06,.02,1.78-.05v.95c-1.43,.21-2.49,.11-3.19-.3-.7-.41-1.05-1.2-1.05-2.37v-6.88h-2.33v-1.04h2.33v-2.65l1.08-.32v2.97h3.16v1.04Z"/>
        <path class="cls-2" d="M202.94,88.87c-.84,0-1.51-.15-2.03-.46-.82-.48-1.23-1.38-1.23-2.69v-6.52h-2.33v-1.77h2.33v-2.56l1.81-.53v3.09h3.16v1.77h-3.16v6.52c0,.64,.14,.94,.25,1.08,.16,.19,.42,.3,.79,.33,.44,.03,1.02,.02,1.71-.05l.4-.04v1.67l-.31,.05c-.51,.08-.98,.11-1.4,.11Zm-4.86-10.4h2.33v7.25c0,1.04,.28,1.71,.87,2.06,.57,.34,1.46,.44,2.63,.29v-.23c-.56,.04-1.05,.05-1.44,.02-.57-.04-1-.24-1.29-.58-.29-.34-.43-.85-.43-1.55v-7.25h3.16v-.3h-3.16v-2.84l-.35,.1v2.74h-2.33v.3Z"/>
      </g>
      <g>
        <path class="cls-2" d="M207.95,74.99c-.17,.16-.37,.24-.59,.24s-.42-.08-.59-.24c-.17-.16-.25-.36-.25-.6,0-.23,.09-.42,.25-.58,.17-.16,.37-.24,.59-.24s.42,.08,.59,.24c.17,.16,.25,.36,.25,.58,0,.24-.08,.44-.25,.6Zm-1.12,13.4v-10.59h1.06v10.59h-1.06Z"/>
        <path class="cls-2" d="M208.25,88.76h-1.79v-11.32h1.79v11.32Zm-1.06-.73h.33v-9.86h-.33v9.86Zm.16-12.42c-.32,0-.61-.12-.85-.35-.24-.23-.37-.53-.37-.87,0-.32,.13-.61,.37-.85,.49-.46,1.21-.46,1.69,0,.24,.23,.37,.52,.37,.85s-.13,.64-.37,.87h0c-.24,.23-.52,.35-.85,.35Zm0-1.67c-.13,0-.24,.04-.34,.14-.09,.09-.14,.19-.14,.32,0,.14,.04,.25,.14,.34,.21,.2,.47,.2,.68,0h0c.1-.09,.14-.2,.14-.34,0-.12-.05-.23-.14-.32-.1-.1-.21-.14-.34-.14Z"/>
      </g>
      <g>
        <path class="cls-2" d="M216,88.63c-1.55,0-2.87-.53-3.95-1.6-1.08-1.07-1.62-2.38-1.62-3.93s.54-2.86,1.62-3.93c1.08-1.07,2.4-1.6,3.95-1.6s2.85,.53,3.93,1.6c1.08,1.07,1.62,2.38,1.62,3.93s-.54,2.86-1.62,3.93c-1.08,1.07-2.39,1.6-3.93,1.6Zm-3.19-2.33c.87,.88,1.93,1.31,3.19,1.31s2.32-.44,3.18-1.31c.86-.88,1.29-1.94,1.29-3.2s-.43-2.32-1.29-3.2c-.86-.88-1.92-1.31-3.18-1.31s-2.32,.44-3.19,1.31c-.87,.88-1.3,1.94-1.3,3.2s.43,2.32,1.3,3.2Z"/>
        <path class="cls-2" d="M216,88.99c-1.65,0-3.06-.57-4.21-1.71-1.15-1.13-1.73-2.54-1.73-4.19s.58-3.06,1.73-4.19c1.15-1.13,2.56-1.7,4.21-1.7s3.04,.57,4.19,1.7c1.15,1.13,1.73,2.54,1.73,4.19s-.58,3.06-1.73,4.19c-1.14,1.13-2.55,1.71-4.19,1.71Zm0-11.06c-1.47,0-2.67,.49-3.69,1.49-1.02,1.01-1.51,2.21-1.51,3.67s.51,2.68,1.51,3.67c1.02,1,2.23,1.49,3.69,1.49s2.65-.49,3.67-1.49c1-.99,1.51-2.22,1.51-3.67s-.49-2.66-1.51-3.67c-1.02-1-2.22-1.49-3.67-1.49Zm0,10.04c-1.35,0-2.51-.48-3.45-1.42-.93-.94-1.41-2.1-1.41-3.45s.47-2.51,1.41-3.46c.94-.94,2.1-1.42,3.45-1.42s2.51,.48,3.44,1.42c.93,.94,1.4,2.11,1.4,3.46s-.47,2.51-1.4,3.45c-.93,.95-2.09,1.42-3.44,1.42Zm0-9.02c-1.17,0-2.12,.39-2.93,1.2-.81,.81-1.19,1.78-1.19,2.94s.39,2.13,1.19,2.94h0c.81,.81,1.76,1.2,2.93,1.2s2.12-.39,2.92-1.2c.8-.81,1.18-1.77,1.18-2.94s-.39-2.13-1.19-2.94c-.8-.81-1.75-1.2-2.91-1.2Z"/>
      </g>
      <g>
        <path class="cls-2" d="M228.94,77.57c1.26,0,2.25,.38,3,1.15,.74,.77,1.11,1.8,1.11,3.08v6.59h-1.08v-6.59c0-.99-.27-1.77-.81-2.35-.54-.58-1.31-.87-2.3-.87-1.09,0-1.98,.36-2.67,1.08s-1.04,1.77-1.04,3.14v5.59h-1.06v-10.59h1.06v2.01c.76-1.5,2.03-2.24,3.79-2.24Z"/>
        <path class="cls-2" d="M233.42,88.76h-1.81v-6.95c0-.9-.23-1.58-.72-2.1-.48-.5-1.14-.75-2.03-.75-.99,0-1.78,.32-2.4,.97-.62,.65-.94,1.62-.94,2.88v5.96h-1.79v-11.32h1.79v1.18c.83-.94,1.98-1.41,3.43-1.41,1.36,0,2.45,.43,3.26,1.27,.81,.84,1.22,1.96,1.22,3.33v6.95Zm-1.08-.73h.35v-6.22c0-1.18-.34-2.13-1.01-2.83-.67-.7-1.57-1.04-2.73-1.04-1.63,0-2.76,.67-3.47,2.04l-.02,.04c.14-.22,.29-.42,.47-.6,.76-.79,1.75-1.19,2.93-1.19,1.09,0,1.95,.33,2.57,.98,.61,.65,.91,1.53,.91,2.6v6.22Zm-7.88,0h.32v-5.22c0-.86,.13-1.6,.39-2.23l-.39,.77v-3.17h-.32v9.86Z"/>
      </g>
      <g>
        <path class="cls-2" d="M246.69,74.35c-2.1-.17-3.16,.79-3.16,2.88v.57h3.16v1.04h-3.16v9.55h-1.08v-9.55h-1.82v-1.04h1.82v-.57c0-1.33,.36-2.33,1.09-3.02,.73-.68,1.78-.98,3.15-.88v1.02Z"/>
        <path class="cls-2" d="M243.91,88.76h-1.82v-9.55h-1.82v-1.77h1.82v-.21c0-1.43,.41-2.53,1.21-3.29,.8-.75,1.94-1.06,3.42-.98l.34,.03v1.76l-.4-.03c-.93-.06-1.65,.09-2.09,.5-.44,.41-.66,1.08-.66,2.01v.21h3.15v1.77h-3.15v9.55Zm-1.08-.73h.35v-9.55h3.15v-.3h-3.15v-.94c0-1.14,.3-2,.9-2.55,.51-.47,1.24-.71,2.17-.71h.09v-.29c-1.08,0-1.94,.25-2.52,.8-.65,.61-.98,1.54-.98,2.75v.94h-1.82v.3h1.82v9.55Z"/>
      </g>
      <g>
        <path class="cls-2" d="M252.48,88.63c-1.55,0-2.87-.53-3.95-1.6-1.08-1.07-1.62-2.38-1.62-3.93s.54-2.86,1.62-3.93c1.08-1.07,2.4-1.6,3.95-1.6s2.85,.53,3.93,1.6c1.08,1.07,1.62,2.38,1.62,3.93s-.54,2.86-1.62,3.93c-1.08,1.07-2.39,1.6-3.93,1.6Zm-3.19-2.33c.87,.88,1.93,1.31,3.19,1.31s2.32-.44,3.18-1.31c.86-.88,1.29-1.94,1.29-3.2s-.43-2.32-1.29-3.2c-.86-.88-1.92-1.31-3.18-1.31s-2.32,.44-3.19,1.31c-.87,.88-1.3,1.94-1.3,3.2s.43,2.32,1.3,3.2Z"/>
        <path class="cls-2" d="M252.48,88.99c-1.65,0-3.06-.57-4.21-1.71-1.15-1.13-1.73-2.54-1.73-4.19s.58-3.06,1.73-4.19c1.15-1.13,2.56-1.7,4.21-1.7s3.04,.57,4.19,1.7c1.15,1.13,1.73,2.54,1.73,4.19s-.58,3.06-1.73,4.19c-1.14,1.13-2.55,1.71-4.19,1.71Zm0-11.06c-1.47,0-2.67,.49-3.69,1.49-1.02,1.01-1.51,2.21-1.51,3.67s.51,2.68,1.51,3.67c1.02,1,2.23,1.49,3.69,1.49s2.65-.49,3.67-1.49c1-.99,1.51-2.22,1.51-3.67s-.49-2.66-1.51-3.67c-1.02-1-2.22-1.49-3.67-1.49Zm0,10.04c-1.35,0-2.51-.48-3.45-1.42h0c-.93-.94-1.41-2.1-1.41-3.46s.47-2.52,1.41-3.46c.93-.94,2.09-1.42,3.45-1.42s2.51,.48,3.44,1.42,1.4,2.11,1.4,3.46-.47,2.51-1.4,3.45c-.93,.95-2.08,1.42-3.44,1.42Zm0-9.02c-1.17,0-2.12,.39-2.93,1.2-.81,.81-1.2,1.77-1.2,2.94s.39,2.13,1.2,2.94h0c.8,.81,1.76,1.21,2.93,1.21s2.12-.39,2.91-1.2c.8-.81,1.19-1.77,1.19-2.94s-.39-2.13-1.19-2.94c-.8-.81-1.75-1.2-2.91-1.2Z"/>
      </g>
      <g>
        <path class="cls-2" d="M261.63,79.88c.64-1.48,1.81-2.22,3.54-2.22v1.02c-1,0-1.84,.32-2.52,.96-.68,.64-1.02,1.6-1.02,2.87v5.89h-1.06v-10.59h1.06v2.08Z"/>
        <path class="cls-2" d="M261.99,88.76h-1.79v-11.32h1.79v1.15c.75-.86,1.81-1.3,3.17-1.3h.37v1.75h-.37c-.91,0-1.66,.28-2.27,.86-.6,.57-.9,1.45-.9,2.6v6.25Zm-1.06-.73h.33v-5.52c0-.37,.03-.72,.08-1.04l-.08,.19v-3.49h-.33v9.86Zm3.86-9.99c-1.2,.08-2.07,.6-2.62,1.56,.07-.08,.14-.15,.21-.22,.66-.63,1.47-.98,2.41-1.05v-.29Z"/>
      </g>
      <g>
        <path class="cls-2" d="M277.72,77.57c1.55,0,2.81,.55,3.78,1.65,.97,1.1,1.45,2.41,1.45,3.92,0,.06,0,.14-.01,.25,0,.11-.01,.2-.01,.25h-9.6c.13,1.19,.6,2.14,1.43,2.87s1.85,1.09,3.06,1.09c.85,0,1.59-.18,2.22-.53,.64-.35,1.12-.82,1.44-1.4l.93,.55c-.44,.73-1.06,1.32-1.86,1.75s-1.72,.65-2.75,.65c-1.62,0-2.96-.52-4-1.56-1.05-1.04-1.57-2.36-1.57-3.97s.51-2.9,1.54-3.95c1.02-1.05,2.34-1.58,3.95-1.58Zm0,1.02c-1.2,0-2.2,.37-3.01,1.12-.8,.75-1.26,1.72-1.38,2.9h8.52c-.11-1.26-.56-2.24-1.35-2.95-.78-.71-1.71-1.07-2.79-1.07Z"/>
        <path class="cls-2" d="M277.81,88.99c-1.72,0-3.15-.56-4.26-1.66-1.11-1.11-1.68-2.53-1.68-4.23s.55-3.09,1.64-4.21c1.09-1.12,2.51-1.69,4.21-1.69s3.02,.6,4.06,1.78c1.02,1.17,1.54,2.57,1.54,4.16,0,.06,0,.16-.01,.28,0,.1-.01,.18-.01,.23v.37h-9.54c.17,.91,.58,1.64,1.25,2.23,.77,.67,1.69,1,2.82,1,.78,0,1.47-.16,2.05-.48,.58-.32,1.01-.73,1.3-1.26l.18-.33,1.57,.93-.19,.32c-.47,.79-1.15,1.42-2,1.88-.85,.46-1.84,.69-2.93,.69Zm-.09-11.06c-1.52,0-2.73,.48-3.69,1.46-.96,.99-1.43,2.2-1.43,3.7s.48,2.74,1.46,3.71c.98,.98,2.21,1.45,3.75,1.45,.97,0,1.84-.2,2.58-.6,.63-.34,1.13-.77,1.52-1.3l-.29-.17c-.35,.49-.81,.9-1.38,1.22-.69,.38-1.49,.58-2.4,.58-1.3,0-2.41-.4-3.3-1.18-.89-.79-1.42-1.83-1.55-3.11l-.04-.41h9.65c0-.06,0-.11,0-.14,0-1.43-.44-2.63-1.36-3.68-.9-1.03-2.05-1.53-3.51-1.53Zm4.53,5.04h-9.32l.04-.4c.12-1.27,.62-2.33,1.49-3.14,.87-.81,1.97-1.22,3.26-1.22,1.16,0,2.19,.39,3.03,1.16,.85,.78,1.34,1.85,1.46,3.19l.04,.4Zm-8.5-.73h7.68c-.16-.98-.54-1.74-1.18-2.32-.72-.65-1.55-.97-2.54-.97-1.11,0-2.02,.33-2.76,1.02-.64,.6-1.05,1.36-1.21,2.27Z"/>
      </g>
      <g>
        <path class="cls-2" d="M292.79,77.8h1.12l-4.47,10.59h-1.29l-4.49-10.59h1.14l3.98,9.49,4-9.49Z"/>
        <path class="cls-2" d="M289.68,88.76h-1.78l-4.8-11.32h1.94l3.74,8.91,3.76-8.91h1.92l-4.78,11.32Zm-.81-.73h.33l4.16-9.86h-.33l-4.15,9.86Zm-.48,0h.3l-4.14-9.86h-.35l4.18,9.86Z"/>
      </g>
      <g>
        <path class="cls-2" d="M300.18,77.57c1.55,0,2.81,.55,3.78,1.65,.97,1.1,1.45,2.41,1.45,3.92,0,.06,0,.14-.01,.25,0,.11-.01,.2-.01,.25h-9.6c.13,1.19,.6,2.14,1.43,2.87s1.85,1.09,3.06,1.09c.85,0,1.59-.18,2.22-.53,.64-.35,1.12-.82,1.44-1.4l.93,.55c-.44,.73-1.06,1.32-1.86,1.75s-1.72,.65-2.75,.65c-1.62,0-2.96-.52-4-1.56-1.05-1.04-1.57-2.36-1.57-3.97s.51-2.9,1.54-3.95c1.02-1.05,2.34-1.58,3.95-1.58Zm0,1.02c-1.2,0-2.2,.37-3.01,1.12-.8,.75-1.26,1.72-1.38,2.9h8.52c-.11-1.26-.56-2.24-1.35-2.95-.78-.71-1.71-1.07-2.79-1.07Z"/>
        <path class="cls-2" d="M300.26,88.99c-1.71,0-3.15-.56-4.26-1.66-1.11-1.11-1.68-2.53-1.68-4.23s.55-3.09,1.64-4.21c1.09-1.12,2.51-1.69,4.21-1.69s3.02,.6,4.06,1.78c1.02,1.17,1.54,2.57,1.54,4.16,0,.05,0,.11,0,.19v.1c-.01,.1-.02,.17-.02,.22v.37h-9.54c.17,.91,.58,1.64,1.25,2.23,.75,.66,1.7,1,2.82,1,.78,0,1.47-.16,2.05-.48,.58-.32,1.01-.73,1.3-1.26l.18-.32,1.57,.92-.19,.32c-.47,.79-1.15,1.42-2.01,1.88-.85,.46-1.84,.69-2.93,.69Zm-.08-11.06c-1.52,0-2.73,.48-3.69,1.46-.96,.99-1.43,2.2-1.43,3.7s.48,2.74,1.46,3.71c.99,.98,2.21,1.45,3.75,1.45,.97,0,1.84-.2,2.58-.6,.63-.33,1.14-.77,1.52-1.3l-.3-.17c-.35,.49-.81,.9-1.38,1.22-.69,.38-1.49,.58-2.4,.58-1.3,0-2.41-.4-3.3-1.18-.9-.79-1.42-1.83-1.55-3.11l-.04-.41h9.65v-.14c0-1.43-.44-2.63-1.36-3.68-.9-1.03-2.05-1.53-3.51-1.53Zm4.53,5.04h-9.32l.04-.4c.12-1.27,.62-2.33,1.49-3.13,.87-.81,1.97-1.22,3.26-1.22,1.16,0,2.18,.39,3.03,1.16,.85,.78,1.34,1.85,1.46,3.19l.04,.4Zm-8.5-.73h7.68c-.16-.98-.54-1.74-1.18-2.32-.71-.64-1.56-.97-2.54-.97-1.11,0-2.02,.33-2.76,1.02-.65,.61-1.05,1.35-1.21,2.27Z"/>
      </g>
      <g>
        <path class="cls-2" d="M308.95,79.88c.64-1.48,1.81-2.22,3.54-2.22v1.02c-1,0-1.84,.32-2.52,.96-.68,.64-1.02,1.6-1.02,2.87v5.89h-1.06v-10.59h1.06v2.08Z"/>
        <path class="cls-2" d="M309.31,88.76h-1.79v-11.32h1.79v1.15c.75-.86,1.81-1.3,3.17-1.3h.37v1.75h-.37c-.91,0-1.66,.28-2.27,.86-.6,.57-.9,1.45-.9,2.6v6.25Zm-1.06-.73h.33v-5.52c0-.37,.03-.72,.08-1.04l-.08,.19v-3.49h-.33v9.86Zm3.86-9.99c-1.2,.08-2.07,.6-2.62,1.56,.07-.08,.14-.15,.21-.22,.66-.63,1.47-.98,2.41-1.05v-.29Z"/>
      </g>
      <g>
        <path class="cls-2" d="M322.59,77.8h1.14l-4.58,11.57c-.41,1.05-.99,1.87-1.74,2.47-.75,.6-1.57,.86-2.46,.79v-1c.68,.06,1.29-.14,1.83-.58,.54-.45,.98-1.08,1.32-1.9l.23-.57-4.87-10.78h1.14l4.28,9.43,3.69-9.43Z"/>
        <path class="cls-2" d="M315.25,93c-.1,0-.21,0-.31-.01l-.34-.03v-1.73l.4,.03c.6,.04,1.1-.12,1.57-.5,.49-.41,.9-.99,1.22-1.75l.17-.43-5.04-11.16h1.95l.1,.22,3.92,8.63,3.46-8.85h1.93l-4.78,12.07c-.43,1.1-1.05,1.98-1.85,2.62-.74,.59-1.54,.88-2.4,.88Zm.09-1v.26c.66-.02,1.28-.25,1.86-.72,.69-.56,1.24-1.34,1.63-2.32l4.38-11.06h-.35l-3.91,10-4.54-10h-.34l4.7,10.41-.29,.72c-.36,.87-.84,1.56-1.43,2.04-.51,.42-1.08,.64-1.7,.67Z"/>
      </g>
      <g>
        <path class="cls-2" d="M336.15,77.57c1.26,0,2.25,.38,3,1.15,.74,.77,1.11,1.8,1.11,3.08v6.59h-1.08v-6.59c0-.99-.27-1.77-.81-2.35-.54-.58-1.31-.87-2.3-.87-1.09,0-1.98,.36-2.67,1.08s-1.04,1.77-1.04,3.14v5.59h-1.06v-10.59h1.06v2.01c.76-1.5,2.03-2.24,3.79-2.24Z"/>
        <path class="cls-2" d="M340.62,88.76h-1.81v-6.95c0-.9-.23-1.58-.72-2.1-.48-.5-1.14-.75-2.03-.75-.99,0-1.78,.32-2.4,.97-.62,.65-.94,1.62-.94,2.88v5.96h-1.79v-11.32h1.79v1.18c.83-.94,1.98-1.41,3.43-1.41,1.36,0,2.45,.43,3.26,1.27,.81,.84,1.22,1.96,1.22,3.33v6.95Zm-1.08-.73h.35v-6.22c0-1.18-.34-2.13-1.01-2.83-.67-.7-1.57-1.04-2.73-1.04-1.63,0-2.76,.67-3.47,2.04l-.02,.04c.14-.22,.29-.42,.47-.6,.76-.79,1.75-1.19,2.93-1.19,1.09,0,1.95,.33,2.57,.98,.61,.65,.91,1.53,.91,2.6v6.22Zm-7.88,0h.33v-5.22c0-.86,.13-1.6,.39-2.23l-.39,.77v-3.17h-.33v9.86Z"/>
      </g>
      <g>
        <path class="cls-2" d="M352.56,77.8h1.08v10.59h-1.08v-2.39c-.45,.82-1.07,1.46-1.86,1.93-.79,.47-1.69,.7-2.69,.7-1.51,0-2.8-.53-3.88-1.6-1.07-1.07-1.61-2.38-1.61-3.93s.54-2.86,1.61-3.93c1.07-1.07,2.37-1.6,3.88-1.6,1,0,1.9,.23,2.69,.7,.79,.47,1.41,1.11,1.86,1.93v-2.39Zm-7.66,8.49c.87,.88,1.93,1.31,3.19,1.31s2.32-.44,3.18-1.31c.86-.88,1.29-1.94,1.29-3.2s-.43-2.32-1.29-3.2c-.86-.88-1.92-1.31-3.18-1.31s-2.32,.44-3.19,1.31c-.87,.88-1.3,1.94-1.3,3.2s.43,2.32,1.3,3.2Z"/>
        <path class="cls-2" d="M348.01,88.99c-1.6,0-3-.58-4.13-1.71-1.14-1.13-1.72-2.54-1.72-4.19s.58-3.06,1.72-4.19c1.14-1.13,2.53-1.7,4.13-1.7,1.07,0,2.04,.25,2.88,.75,.5,.29,.94,.66,1.31,1.08v-1.6h1.81v11.32h-1.81v-1.6c-.37,.43-.81,.79-1.31,1.08-.85,.5-1.81,.75-2.88,.75Zm0-11.06c-1.42,0-2.61,.49-3.62,1.49-1.01,1-1.5,2.2-1.5,3.67s.5,2.68,1.5,3.67c1.01,1,2.19,1.49,3.62,1.49,.93,0,1.77-.22,2.5-.65s1.31-1.03,1.73-1.79l.69-1.25v3.45h.35v-9.86h-.35v3.45l-.69-1.25c-.42-.76-1-1.36-1.73-1.79-.73-.43-1.57-.65-2.5-.65Zm.09,10.04c-1.35,0-2.51-.48-3.45-1.42-.93-.94-1.41-2.1-1.41-3.45s.47-2.51,1.41-3.46c.94-.94,2.1-1.42,3.45-1.42s2.51,.48,3.44,1.42,1.4,2.11,1.4,3.46-.47,2.51-1.4,3.45c-.93,.95-2.08,1.42-3.44,1.42Zm0-9.02c-1.17,0-2.12,.39-2.93,1.2-.81,.81-1.19,1.78-1.19,2.94s.39,2.13,1.19,2.94h0c.81,.81,1.76,1.2,2.93,1.2s2.12-.39,2.91-1.2c.8-.81,1.19-1.77,1.19-2.94s-.39-2.13-1.19-2.94c-.8-.81-1.75-1.2-2.91-1.2Z"/>
      </g>
      <g>
        <path class="cls-2" d="M362.33,78.84h-3.16v6.88c0,.61,.11,1.05,.34,1.31,.23,.27,.57,.42,1.04,.46,.47,.04,1.06,.02,1.78-.05v.95c-1.43,.21-2.49,.11-3.19-.3-.7-.41-1.05-1.2-1.05-2.37v-6.88h-2.33v-1.04h2.33v-2.65l1.08-.32v2.97h3.16v1.04Z"/>
        <path class="cls-2" d="M360.99,88.87c-.84,0-1.51-.15-2.03-.46-.82-.48-1.23-1.38-1.23-2.69v-6.52h-2.33v-1.77h2.33v-2.56l1.81-.53v3.09h3.16v1.77h-3.16v6.52c0,.51,.09,.88,.25,1.08,.16,.19,.42,.3,.79,.33,.44,.03,1.02,.02,1.71-.05l.4-.04v1.67l-.31,.05c-.51,.08-.98,.11-1.4,.11Zm-4.86-10.4h2.33v7.25c0,1.04,.28,1.71,.87,2.06,.57,.34,1.46,.44,2.63,.29v-.23c-.56,.04-1.04,.05-1.44,.02-.57-.04-1-.24-1.29-.58-.29-.34-.43-.85-.43-1.55v-7.25h3.16v-.3h-3.16v-2.84l-.35,.1v2.74h-2.33v.3Z"/>
      </g>
      <g>
        <path class="cls-2" d="M365.99,74.99c-.17,.16-.37,.24-.59,.24s-.42-.08-.59-.24c-.17-.16-.25-.36-.25-.6,0-.23,.09-.42,.25-.58,.17-.16,.37-.24,.59-.24s.42,.08,.59,.24c.17,.16,.25,.36,.25,.58,0,.24-.08,.44-.25,.6Zm-1.12,13.4v-10.59h1.06v10.59h-1.06Z"/>
        <path class="cls-2" d="M366.3,88.76h-1.79v-11.32h1.79v11.32Zm-1.06-.73h.33v-9.86h-.33v9.86Zm.16-12.42c-.32,0-.61-.12-.85-.35-.24-.23-.37-.53-.37-.87,0-.32,.13-.61,.37-.85,.47-.45,1.22-.45,1.69,0,.24,.23,.37,.52,.37,.85s-.13,.64-.37,.87c-.23,.23-.52,.35-.84,.35Zm0-1.67c-.13,0-.24,.04-.34,.14-.09,.09-.14,.19-.14,.32,0,.14,.04,.25,.14,.34,.2,.19,.47,.2,.68,0h0c.1-.09,.14-.2,.14-.34,0-.12-.05-.23-.14-.32-.1-.1-.21-.14-.34-.14Z"/>
      </g>
      <g>
        <path class="cls-2" d="M374.04,88.63c-1.55,0-2.87-.53-3.95-1.6-1.08-1.07-1.62-2.38-1.62-3.93s.54-2.86,1.62-3.93c1.08-1.07,2.4-1.6,3.95-1.6s2.85,.53,3.93,1.6c1.08,1.07,1.62,2.38,1.62,3.93s-.54,2.86-1.62,3.93c-1.08,1.07-2.39,1.6-3.93,1.6Zm-3.19-2.33c.87,.88,1.93,1.31,3.19,1.31s2.32-.44,3.18-1.31c.86-.88,1.29-1.94,1.29-3.2s-.43-2.32-1.29-3.2c-.86-.88-1.92-1.31-3.18-1.31s-2.32,.44-3.19,1.31c-.87,.88-1.3,1.94-1.3,3.2s.43,2.32,1.3,3.2Z"/>
        <path class="cls-2" d="M374.04,88.99c-1.65,0-3.06-.57-4.21-1.71-1.15-1.13-1.73-2.54-1.73-4.19s.58-3.06,1.73-4.19c1.15-1.13,2.56-1.7,4.21-1.7s3.04,.57,4.19,1.7c1.15,1.13,1.73,2.54,1.73,4.19s-.58,3.06-1.73,4.19c-1.14,1.13-2.55,1.71-4.19,1.71Zm0-11.06c-1.47,0-2.67,.49-3.69,1.49-1.02,1.01-1.51,2.21-1.51,3.67s.51,2.68,1.51,3.67c1.02,1,2.23,1.49,3.69,1.49s2.65-.49,3.67-1.49c1-.99,1.51-2.22,1.51-3.67s-.49-2.66-1.51-3.67c-1.02-1-2.22-1.49-3.67-1.49Zm0,10.04c-1.35,0-2.51-.48-3.45-1.42-.93-.94-1.41-2.1-1.41-3.45s.47-2.51,1.41-3.46c.94-.94,2.1-1.42,3.45-1.42s2.51,.48,3.44,1.42,1.4,2.11,1.4,3.46-.47,2.51-1.4,3.45c-.93,.95-2.08,1.42-3.44,1.42Zm0-9.02c-1.17,0-2.12,.39-2.93,1.2-.81,.81-1.19,1.78-1.19,2.94s.39,2.13,1.19,2.94h0c.81,.81,1.76,1.2,2.93,1.2s2.12-.39,2.91-1.2c.8-.81,1.19-1.77,1.19-2.94s-.39-2.13-1.19-2.94c-.8-.81-1.75-1.2-2.91-1.2Z"/>
      </g>
      <g>
        <path class="cls-2" d="M386.99,77.57c1.26,0,2.25,.38,3,1.15,.74,.77,1.11,1.8,1.11,3.08v6.59h-1.08v-6.59c0-.99-.27-1.77-.81-2.35-.54-.58-1.31-.87-2.3-.87-1.09,0-1.98,.36-2.67,1.08s-1.04,1.77-1.04,3.14v5.59h-1.06v-10.59h1.06v2.01c.76-1.5,2.03-2.24,3.79-2.24Z"/>
        <path class="cls-2" d="M391.46,88.76h-1.81v-6.95c0-.9-.23-1.58-.72-2.1-.47-.5-1.14-.75-2.03-.75-1,0-1.78,.32-2.4,.97-.62,.65-.93,1.62-.93,2.88v5.96h-1.79v-11.32h1.79v1.18c.83-.94,1.98-1.41,3.42-1.41,1.36,0,2.45,.43,3.26,1.27,.81,.84,1.22,1.96,1.22,3.33v6.95Zm-1.08-.73h.35v-6.22c0-1.2-.33-2.12-1.01-2.83-.68-.7-1.57-1.04-2.73-1.04-1.63,0-2.76,.67-3.46,2.04v.02c.12-.21,.28-.41,.45-.59,.76-.79,1.75-1.19,2.93-1.19,1.09,0,1.95,.33,2.57,.98,.61,.65,.91,1.52,.91,2.6v6.22Zm-7.88,0h.33v-5.22c0-.85,.13-1.59,.39-2.22l-.39,.76v-3.17h-.33v9.86Z"/>
      </g>
    </g>
  </g>
</svg>