<svg width="100" height="100" viewBox="0 0 100 100" fill="none" xmlns="http://www.w3.org/2000/svg">
<g clip-path="url(#clip0_107_5)">
<path d="M97.6369 46.7907C96.14 45.4097 94.1037 44.5568 92.0499 44.45C89.7176 44.3294 87.5325 45.161 85.9052 46.7891L74.7861 57.7915C74.5664 57.4108 74.3154 57.0514 74.0339 56.718C72.6659 55.0937 70.6655 54.1996 68.4018 54.1996H52.8363C49.9013 54.1996 47.038 53.8189 44.3265 53.0689C37.2571 51.1135 30.5036 52.5417 24.7945 57.2017C22.4729 59.0969 20.7791 61.1583 19.708 62.6613L16.9171 59.9529C16.5502 59.5966 16.0527 59.3944 15.5408 59.3944C15.5362 59.3944 15.5324 59.3944 15.5278 59.3944C14.9976 59.3982 14.4849 59.6187 14.1171 60.0002L0.549787 74.0848C0.186628 74.4617 -0.0109733 74.9683 0.000470772 75.4917C0.0119149 76.0158 0.230879 76.5133 0.61006 76.8741L23.557 98.724C23.9377 99.0864 24.426 99.2672 24.9135 99.2672C25.4254 99.2672 25.9374 99.0681 26.3227 98.6729L39.7634 84.8835C40.1303 84.5066 40.334 83.9916 40.3241 83.4652C40.3142 82.9464 40.0968 82.4459 39.7245 82.0843L38.5541 80.949L41.2328 80.6476C42.8533 80.4592 44.5012 80.3638 46.1324 80.3638H69.8148C73.6631 80.3638 76.9315 79.5223 79.5301 77.8621C79.5514 77.8484 79.5728 77.8339 79.5942 77.8194C80.5249 77.1724 81.3695 76.4057 82.1035 75.5413L98.0626 56.7661C100.794 53.5534 100.623 49.5441 97.6369 46.7907ZM24.8624 94.5347L4.75587 75.3895L15.5873 64.1445L35.5764 83.5422L24.8624 94.5347ZM95.065 54.2179L79.1059 72.9938C78.5993 73.5897 78.0187 74.1192 77.3786 74.5678C75.4277 75.803 72.8833 76.4301 69.8148 76.4301H46.1316C44.3502 76.4301 42.5489 76.5346 40.7857 76.7399L34.8973 77.4006L22.5682 65.4361C23.425 64.1659 25.0005 62.1128 27.2824 60.2497C32.0264 56.377 37.4082 55.2364 43.2775 56.8607C46.3307 57.7053 49.5465 58.134 52.8363 58.134H68.4018C71.1972 58.134 71.9434 60.5556 71.9434 61.9861C71.9434 63.0314 71.6077 64.0262 71.0225 64.7159C70.3878 65.4628 69.4852 65.8413 68.34 65.8413H54.7902C53.7038 65.8413 52.8234 66.7225 52.8234 67.8089C52.8234 68.8953 53.7038 69.7757 54.7902 69.7757H68.34C70.6273 69.7757 72.6445 68.8831 74.0209 67.2626C75.1661 65.9153 75.8191 64.1437 75.8741 62.2501L88.68 49.5784C90.5103 47.7482 93.3698 48.2074 94.9697 49.683C95.7967 50.4459 96.9091 52.0488 95.065 54.2179Z" fill="black"/>
<path d="M48.656 67.2841C48.4081 66.2259 47.3499 65.5706 46.2917 65.8178C45.2342 66.0657 44.5773 67.1239 44.8261 68.1821L44.8444 68.2622C45.0572 69.1686 45.8652 69.7805 46.7578 69.7805C46.9066 69.7805 47.0577 69.7637 47.2087 69.7286C48.2669 69.4806 48.923 68.4217 48.6751 67.3642L48.656 67.2841Z" fill="black"/>
<path d="M13.2962 42.2852H32.4643C33.508 42.2852 34.4739 41.9464 35.2597 41.3742C36.0456 41.9464 37.0115 42.2852 38.0552 42.2852H57.224C58.2677 42.2852 59.2336 41.9464 60.0194 41.3742C60.8053 41.9464 61.7711 42.2852 62.8148 42.2852H81.9829C84.609 42.2852 86.7452 40.1482 86.7452 37.5221V28.5835C86.7452 24.5689 84.4984 21.0815 81.1353 19.3611C82.765 17.3958 83.7461 14.875 83.7461 12.1285C83.7461 5.87158 78.6558 0.78125 72.3989 0.78125C66.142 0.78125 61.0517 5.87158 61.0517 12.1285C61.0517 14.875 62.0328 17.3966 63.6625 19.3611C62.2091 20.1057 60.9647 21.1807 60.0194 22.4846C59.0741 21.18 57.8298 20.105 56.3756 19.3611C58.0053 17.3966 58.9864 14.875 58.9864 12.1285C58.9864 5.87158 53.8961 0.78125 47.6392 0.78125C41.3823 0.78125 36.292 5.87158 36.292 12.1285C36.292 14.875 37.2739 17.3966 38.9035 19.3619C37.4494 20.1057 36.205 21.1807 35.2597 22.4854C34.3145 21.1807 33.0701 20.1057 31.6159 19.3611C33.2456 17.3966 34.2267 14.875 34.2267 12.1292C34.2267 5.87158 29.1364 0.78125 22.8795 0.78125C16.6234 0.78125 11.5331 5.87158 11.5331 12.1292C11.5331 14.875 12.5142 17.3966 14.1439 19.3619C10.7808 21.0823 8.5332 24.5705 8.5332 28.5843V37.5221C8.5332 40.1482 10.6702 42.2852 13.2962 42.2852ZM72.3997 4.71573C76.4867 4.71573 79.8124 8.04062 79.8124 12.1285C79.8124 16.2155 76.4867 19.5412 72.3997 19.5412C68.3118 19.5412 64.9869 16.2163 64.9869 12.1285C64.9862 8.04062 68.3118 4.71573 72.3997 4.71573ZM67.2887 22.2549C68.826 23.0339 70.5617 23.4757 72.3989 23.4757C74.2368 23.4757 75.9725 23.0339 77.5091 22.2549C80.5662 22.7875 82.8115 25.4219 82.8115 28.5835V37.5221C82.8115 37.9791 82.4399 38.3507 81.9829 38.3507H62.8148C62.3586 38.3507 61.987 37.9791 61.987 37.5221V28.5835C61.9863 25.4227 64.2324 22.7875 67.2887 22.2549ZM47.64 4.71573C51.727 4.71573 55.0527 8.04062 55.0527 12.1285C55.0527 16.2155 51.727 19.5412 47.64 19.5412C43.5521 19.5412 40.2272 16.2163 40.2272 12.1285C40.2272 8.04062 43.5521 4.71573 47.64 4.71573ZM42.5298 22.2549C44.0664 23.0339 45.802 23.4757 47.64 23.4757C49.4779 23.4757 51.2128 23.0339 52.7501 22.2549C55.8065 22.7875 58.0526 25.4219 58.0526 28.5835V37.5221C58.0526 37.9791 57.681 38.3507 57.224 38.3507H38.0559C37.5989 38.3507 37.2274 37.9791 37.2274 37.5221V28.5835C37.2274 25.4227 39.4735 22.7875 42.5298 22.2549ZM22.8803 4.71573C26.9674 4.71573 30.293 8.04062 30.293 12.1285C30.293 16.2155 26.9674 19.5412 22.8803 19.5412C18.7932 19.5412 15.4676 16.2155 15.4676 12.1285C15.4676 8.04062 18.7932 4.71573 22.8803 4.71573ZM12.4677 28.5835C12.4677 25.4227 14.7138 22.7875 17.7701 22.2549C19.3074 23.0339 21.0424 23.4757 22.8803 23.4757C24.7182 23.4757 26.4531 23.0339 27.9905 22.2549C31.0476 22.7875 33.2929 25.4219 33.2929 28.5835V37.5221C33.2929 37.9791 32.9213 38.3507 32.4643 38.3507H13.2962C12.8392 38.3507 12.4677 37.9791 12.4677 37.5221V28.5835Z" fill="black"/>
</g>
<defs>
<clipPath id="clip0_107_5">
<rect width="100" height="100" fill="white"/>
</clipPath>
</defs>
</svg>
