<svg width="100" height="100" viewBox="0 0 100 100" fill="none" xmlns="http://www.w3.org/2000/svg">
<path d="M40.0407 88.1127L37.8519 90.3015C36.8561 91.2287 37.6199 93.0168 38.9567 92.9687C39.3564 92.9688 39.7562 92.8162 40.0614 92.511L44.7469 87.8255C45.3514 87.245 45.352 86.1924 44.7469 85.612L40.0614 80.9265C38.6121 79.4902 36.4121 81.6832 37.852 83.136L39.6582 84.9422C-7.0218 78.4231 -3.71369 11.7849 43.6445 10.1562C64.3213 10.1562 81.1441 26.9791 81.1441 47.6562C81.1441 48.5191 81.843 49.2188 82.7066 49.2188C83.5703 49.2188 84.2691 48.5191 84.2691 47.6562C84.2691 25.2556 66.0456 7.03125 43.6442 7.03125C-8.086 8.85659 -11.0884 81.8436 40.0407 88.1127Z" fill="black"/>
<path d="M47.2274 41.8631L44.1711 44.9187L40.393 36.1021C39.5495 34.2291 36.7442 35.4327 37.5213 37.3335L42.2088 48.271C42.6046 49.2667 44.01 49.5409 44.7494 48.76L49.4369 44.0726C50.8735 42.6221 48.6799 40.4238 47.2274 41.8631Z" fill="black"/>
<path d="M88.9573 53.9061H74.2661C78.35 34.8749 63.1448 16.1833 43.6446 16.4063C26.413 16.4061 12.3948 30.4251 12.3948 47.6561C12.0485 68.3658 33.4087 84.0067 53.0198 77.4426V83.5936C53.0198 87.9011 56.5247 91.4061 60.8323 91.4061H88.9573C93.2648 91.4061 96.7698 87.9011 96.7698 83.5936V61.7186C96.7698 57.411 93.2648 53.9061 88.9573 53.9061ZM53.0198 74.14C35.2486 80.8441 15.169 66.6785 15.5201 47.6558C15.5198 32.1478 28.1373 19.5311 43.6448 19.5311C61.4199 19.305 75.2335 36.6483 71.0542 53.9061H67.849C72.0653 38.4204 59.7246 22.4306 43.6446 22.6563C29.86 22.6561 18.6448 33.8713 18.6448 47.6561C18.3057 65.0204 37.0809 77.6287 53.0198 70.8218V74.14ZM53.0198 61.7186V67.3851C50.5459 68.5613 47.9292 69.2471 45.2073 69.4379V67.9686C45.2073 67.1049 44.5084 66.4061 43.6448 66.4061C42.7811 66.4061 42.0823 67.1049 42.0823 67.9686V69.4519C31.2678 68.6821 22.6187 60.0331 21.8489 49.2186H23.3323C24.1959 49.2186 24.8948 48.519 24.8948 47.6561C24.8948 46.7932 24.1959 46.0936 23.3323 46.0936H21.8489C22.6187 35.2791 31.2678 26.63 42.0823 25.8602V27.3436C42.0823 28.2065 42.7811 28.9061 43.6448 28.9061C44.5084 28.9061 45.2073 28.2065 45.2073 27.3436V25.8602C56.0218 26.6301 64.6708 35.2791 65.4406 46.0936H63.9573C63.0936 46.0936 62.3948 46.7932 62.3948 47.6561C62.3948 48.519 63.0936 49.2186 63.9573 49.2186H65.4539C65.3407 50.8166 65.0457 52.3827 64.5876 53.9061H60.8323C56.5247 53.9061 53.0198 57.411 53.0198 61.7186ZM93.6448 83.5936C93.6448 86.1784 91.5421 88.2811 88.9573 88.2811H60.8323C58.2474 88.2811 56.1448 86.1784 56.1448 83.5936V61.7186C56.1448 59.1337 58.2474 57.0311 60.8323 57.0311H88.9573C91.5421 57.0311 93.6448 59.1337 93.6448 61.7186V83.5936Z" fill="black"/>
<path d="M79.7836 63.8726L72.1603 71.4959L70.0058 69.3414C65.5266 65.0857 59.1189 71.4852 63.3775 75.9699L68.8461 81.4385C70.5913 83.2567 73.7294 83.2575 75.4745 81.4385L86.412 70.501C90.6653 66.0222 84.2712 59.6138 79.7836 63.8726ZM84.2026 68.2916L73.2651 79.2291C72.673 79.818 71.6476 79.818 71.0556 79.2291L65.5868 73.7603C64.978 73.1515 64.978 72.1597 65.5868 71.5508C66.1968 70.9421 67.1863 70.9421 67.7963 71.5508L71.0556 74.8101C71.6659 75.4205 72.6547 75.4205 73.2651 74.8101L81.9931 66.0821C83.4374 64.6461 85.6433 66.8374 84.2026 68.2916Z" fill="black"/>
</svg>
