<svg width="100" height="100" viewBox="0 0 100 100" fill="none" xmlns="http://www.w3.org/2000/svg">
<path d="M94.1406 39.2578H81.8359V11.1328C81.8359 7.90195 79.2074 5.27344 75.9766 5.27344H24.0234C20.7926 5.27344 18.1641 7.90195 18.1641 11.1328V28.7109H5.85938C2.62852 28.7109 0 31.3395 0 34.5703V70.5078C0 73.7387 2.62852 76.3672 5.85938 76.3672H23.2145L30.4549 83.6076C30.8363 83.9891 31.3361 84.1797 31.8359 84.1797C32.3357 84.1797 32.8357 83.9891 33.217 83.6076L36.3281 80.4965V81.0547C36.3281 84.2855 38.9566 86.9141 42.1875 86.9141H59.5426L66.783 94.1545C67.1645 94.5359 67.6643 94.7266 68.1641 94.7266C68.6639 94.7266 69.1639 94.5359 69.5451 94.1545L76.7855 86.9141H94.1406C97.3715 86.9141 100 84.2855 100 81.0547V45.1172C100 41.8863 97.3715 39.2578 94.1406 39.2578ZM22.0703 11.1328C22.0703 10.0559 22.9465 9.17969 24.0234 9.17969H75.9766C77.0535 9.17969 77.9297 10.0559 77.9297 11.1328V47.0703C77.9297 48.1473 77.0535 49.0234 75.9766 49.0234H57.8125C57.2945 49.0234 56.7977 49.2293 56.4314 49.5955L50 56.027L43.5686 49.5955C43.2023 49.2293 42.7055 49.0234 42.1875 49.0234H24.0234C22.9465 49.0234 22.0703 48.1473 22.0703 47.0703V11.1328ZM38.2674 73.033L31.8359 79.4645L25.4045 73.033C25.0383 72.6668 24.5414 72.4609 24.0234 72.4609H5.85938C4.78242 72.4609 3.90625 71.5848 3.90625 70.5078V34.5703C3.90625 33.4934 4.78242 32.6172 5.85938 32.6172H18.1641V47.0703C18.1641 50.3012 20.7926 52.9297 24.0234 52.9297H41.3785L48.6189 60.1701C49.0004 60.5516 49.5002 60.7422 50 60.7422C50.4998 60.7422 50.9998 60.5516 51.3811 60.1701L58.6215 52.9297H59.7656V70.5078C59.7656 71.5848 58.8895 72.4609 57.8125 72.4609H39.6484C39.1305 72.4609 38.6336 72.6668 38.2674 73.033ZM96.0938 81.0547C96.0938 82.1316 95.2176 83.0078 94.1406 83.0078H75.9766C75.4586 83.0078 74.9617 83.2137 74.5955 83.5799L68.1641 90.0113L61.7326 83.5799C61.3664 83.2137 60.8695 83.0078 60.3516 83.0078H42.1875C41.1105 83.0078 40.2344 82.1316 40.2344 81.0547V76.5902L40.4574 76.3672H57.8125C61.0434 76.3672 63.6719 73.7387 63.6719 70.5078V52.9297H75.9766C79.2074 52.9297 81.8359 50.3012 81.8359 47.0703V43.1641H94.1406C95.2176 43.1641 96.0938 44.0402 96.0938 45.1172V81.0547Z" fill="black"/>
<path d="M68.1645 16.2109H31.8652C30.7865 16.2109 29.9121 17.0854 29.9121 18.1641C29.9121 19.2428 30.7865 20.1172 31.8652 20.1172H68.1645C69.2432 20.1172 70.1176 19.2428 70.1176 18.1641C70.1176 17.0854 69.2432 16.2109 68.1645 16.2109Z" fill="black"/>
<path d="M69.5449 27.7207C69.1816 27.3574 68.6777 27.1484 68.1641 27.1484C67.6504 27.1484 67.1465 27.3574 66.7832 27.7207C66.4199 28.084 66.2109 28.5879 66.2109 29.1016C66.2109 29.6152 66.4199 30.1191 66.7832 30.4824C67.1465 30.8457 67.6504 31.0547 68.1641 31.0547C68.6777 31.0547 69.1816 30.8457 69.5449 30.4824C69.9082 30.1191 70.1172 29.6152 70.1172 29.1016C70.1172 28.5879 69.9082 28.084 69.5449 27.7207Z" fill="black"/>
<path d="M58.4662 27.1484H31.8652C30.7865 27.1484 29.9121 28.0229 29.9121 29.1016C29.9121 30.1803 30.7865 31.0547 31.8652 31.0547H58.4662C59.5449 31.0547 60.4193 30.1803 60.4193 29.1016C60.4193 28.0229 59.5449 27.1484 58.4662 27.1484Z" fill="black"/>
<path d="M68.1639 38.0859H41.4199C40.3412 38.0859 39.4668 38.9604 39.4668 40.0391C39.4668 41.1178 40.3412 41.9922 41.4199 41.9922H68.1639C69.2426 41.9922 70.117 41.1178 70.117 40.0391C70.117 38.9604 69.2426 38.0859 68.1639 38.0859Z" fill="black"/>
<path d="M31.9994 38.0859H31.8359C30.7572 38.0859 29.8828 38.9604 29.8828 40.0391C29.8828 41.1178 30.7572 41.9922 31.8359 41.9922H31.9994C33.0781 41.9922 33.9525 41.1178 33.9525 40.0391C33.9525 38.9604 33.0781 38.0859 31.9994 38.0859Z" fill="black"/>
</svg>
