<svg width="31" height="55" viewBox="0 0 31 55" fill="none" xmlns="http://www.w3.org/2000/svg">
<path d="M26.6388 0H4.25015C1.90663 0 0 1.90663 0 4.25004V50.7499C0 53.0934 1.90663 54.9999 4.25015 54.9999H26.6389C28.9824 54.9999 30.8891 53.0933 30.8891 50.7499V4.25004C30.8889 1.90663 28.9824 0 26.6388 0ZM10.2224 1.61133H20.6666V2.52785C20.6666 3.03327 20.2554 3.44437 19.75 3.44437H11.139C10.6336 3.44437 10.2225 3.03316 10.2225 2.52785V1.61133H10.2224ZM29.2776 50.75C29.2776 52.205 28.0938 53.3887 26.6388 53.3887H4.25015C2.79512 53.3887 1.61133 52.2049 1.61133 50.75V4.25004C1.61133 2.79501 2.79512 1.61133 4.25015 1.61133H8.61115V2.52785C8.61115 3.92176 9.7452 5.0557 11.139 5.0557H19.75C21.144 5.0557 22.2779 3.92165 22.2779 2.52785V1.61133H26.6389C28.0939 1.61133 29.2777 2.79512 29.2777 4.25004V50.75H29.2776Z" fill="black"/>
<path d="M5.16666 18.8438V29.7813C5.16666 30.0692 5.32027 30.3351 5.56949 30.479L15.0416 35.9478C15.1662 36.0197 15.3053 36.0557 15.4445 36.0557C15.5836 36.0557 15.7227 36.0197 15.8473 35.9478L25.3194 30.479C25.5687 30.3351 25.7223 30.0692 25.7223 29.7813V18.8438C25.7223 18.556 25.5687 18.2901 25.3194 18.1461L15.8473 12.6773C15.5981 12.5333 15.2908 12.5333 15.0416 12.6773L5.56949 18.1461C5.32016 18.2901 5.16666 18.556 5.16666 18.8438ZM16.2501 33.8547V24.7777L24.1109 20.2393V29.3162L16.2501 33.8547ZM6.77798 19.309L15.4445 14.3053L23.3053 18.8438L15.4445 23.3823L9.74659 20.0926C9.36116 19.87 8.86852 20.0022 8.64605 20.3875C8.42358 20.7728 8.5556 21.2656 8.94092 21.488L14.6388 24.7777V33.8547L6.77798 29.3162V19.309Z" fill="black"/>
<path d="M6.83342 11.9446H8.55561C9.94952 11.9446 11.0835 10.8106 11.0835 9.41677C11.0835 8.02297 9.94941 6.88892 8.55561 6.88892H6.83342C5.43952 6.88892 4.30557 8.02297 4.30557 9.41677C4.30557 10.8106 5.43952 11.9446 6.83342 11.9446ZM6.83342 8.50024H8.55561C9.06103 8.50024 9.47213 8.91146 9.47213 9.41677C9.47213 9.92208 9.06092 10.3333 8.55561 10.3333H6.83342C6.328 10.3333 5.9169 9.92208 5.9169 9.41677C5.9169 8.91146 6.328 8.50024 6.83342 8.50024Z" fill="black"/>
<path d="M24.0555 6.88892H22.3333C20.9394 6.88892 19.8055 8.02297 19.8055 9.41677C19.8055 10.8106 20.9395 11.9446 22.3333 11.9446H24.0555C25.4494 11.9446 26.5834 10.8106 26.5834 9.41677C26.5834 8.02297 25.4494 6.88892 24.0555 6.88892ZM24.0555 10.3333H22.3333C21.8279 10.3333 21.4168 9.92208 21.4168 9.41677C21.4168 8.91146 21.828 8.50024 22.3333 8.50024H24.0555C24.5609 8.50024 24.972 8.91146 24.972 9.41677C24.972 9.92208 24.5609 10.3333 24.0555 10.3333Z" fill="black"/>
<path d="M25.7777 39.6109H10.9511C10.6139 38.611 9.66787 37.8887 8.55563 37.8887C7.44338 37.8887 6.49742 38.611 6.16012 39.6109H5.11115C4.6662 39.6109 4.30548 39.9716 4.30548 40.4165C4.30548 40.8615 4.6662 41.2222 5.11115 41.2222H6.16012C6.49732 42.2222 7.44338 42.9445 8.55563 42.9445C9.66787 42.9445 10.6138 42.2222 10.9511 41.2222H25.7778C26.2228 41.2222 26.5835 40.8615 26.5835 40.4165C26.5835 39.9716 26.2227 39.6109 25.7777 39.6109ZM8.55563 41.333C8.05021 41.333 7.6391 40.9218 7.6391 40.4164C7.6391 39.911 8.05032 39.4999 8.55563 39.4999C9.06094 39.4999 9.47215 39.9111 9.47215 40.4164C9.47215 40.9219 9.06105 41.333 8.55563 41.333Z" fill="black"/>
<path d="M25.7777 46.4998H24.7287C24.3915 45.4999 23.4455 44.7776 22.3332 44.7776C21.221 44.7776 20.275 45.4999 19.9377 46.4998H5.11124C4.6663 46.4998 4.30557 46.8605 4.30557 47.3054C4.30557 47.7504 4.6663 48.1111 5.11124 48.1111H19.9379C20.2751 49.111 21.2212 49.8333 22.3334 49.8333C23.4457 49.8333 24.3916 49.111 24.7289 48.1111H25.7779C26.2229 48.1111 26.5836 47.7504 26.5836 47.3054C26.5836 46.8605 26.2226 46.4998 25.7777 46.4998ZM22.3333 48.222C21.8279 48.222 21.4168 47.8108 21.4168 47.3054C21.4168 46.8001 21.828 46.3889 22.3333 46.3889C22.8386 46.3889 23.2499 46.8001 23.2499 47.3054C23.2499 47.8108 22.8386 48.222 22.3333 48.222Z" fill="black"/>
</svg>
