<svg width="100" height="100" viewBox="0 0 100 100" fill="none" xmlns="http://www.w3.org/2000/svg">
<path d="M69.2378 60.6787C68.4362 59.877 68.2165 58.7727 68.6501 57.7252C69.0841 56.678 70.02 56.0526 71.1538 56.0526H74.0052C75.6763 56.0526 77.0357 54.693 77.0357 53.0219V46.9784C77.0357 45.3073 75.6763 43.9477 74.0052 43.9477H71.1538C70.02 43.9477 69.0841 43.3223 68.6501 42.2748C68.2163 41.2276 68.4361 40.1233 69.2378 39.3217L71.2538 37.3057C72.4353 36.1241 72.4353 34.2014 71.2538 33.02L66.9802 28.7463C65.7984 27.5651 63.8761 27.5651 62.6945 28.7463L60.6784 30.7623C59.8769 31.5639 58.7726 31.7842 57.7253 31.3498C56.6778 30.916 56.0525 29.9801 56.0525 28.8463V25.995C56.0525 24.3239 54.6931 22.9645 53.022 22.9645H46.9782C45.3071 22.9645 43.9478 24.3239 43.9478 25.995V28.8463C43.9478 29.9801 43.3224 30.9162 42.2749 31.3498C41.2273 31.784 40.1232 31.5643 39.3216 30.7623L37.3056 28.7463C36.1237 27.5649 34.2015 27.5649 33.0198 28.7463L28.746 33.0198C27.5646 34.2014 27.5646 36.1241 28.746 37.3055L30.762 39.3213C31.5636 40.1231 31.7833 41.2274 31.3495 42.2746C30.9157 43.3221 29.9798 43.9475 28.846 43.9475H25.9946C24.3236 43.9475 22.9642 45.3071 22.9642 46.9782V53.0217C22.9642 54.6928 24.3236 56.0524 25.9946 56.0524H28.846C29.98 56.0524 30.9159 56.6778 31.3495 57.725C31.7835 58.7725 31.564 59.8768 30.762 60.6784L28.746 62.6944C27.5646 63.876 27.5646 65.7987 28.746 66.9801L33.0196 71.2537C34.2015 72.4352 36.1237 72.4352 37.3054 71.2537L39.3212 69.2377C40.1232 68.4362 41.2273 68.2164 42.2747 68.65C43.3222 69.084 43.9476 70.0201 43.9476 71.1537V74.0051C43.9476 75.6762 45.307 77.0356 46.978 77.0356H53.0218C54.6929 77.0356 56.0523 75.6762 56.0523 74.0051V71.1537C56.0523 70.0198 56.6777 69.0838 57.7251 68.65C58.7726 68.2164 59.8767 68.4356 60.6782 69.2377L62.6945 71.2537C63.8763 72.4354 65.7987 72.435 66.98 71.2537L71.2536 66.9801C72.4351 65.7985 72.4351 63.8758 71.2536 62.6944L69.2378 60.6787ZM69.1822 64.9088L64.9085 69.1825C64.8718 69.2192 64.8025 69.2192 64.7661 69.1825L62.7501 67.1664C61.1064 65.5231 58.7515 65.0547 56.604 65.9438C54.4566 66.8334 53.1226 68.8297 53.1226 71.1543V74.0057C53.1226 74.0574 53.0736 74.1065 53.0218 74.1065H46.978C46.9263 74.1065 46.8773 74.0574 46.8773 74.0057V71.1543C46.8773 68.8301 45.5433 66.8334 43.3958 65.9438C42.6761 65.6459 41.9337 65.5002 41.2021 65.5002C39.7503 65.5002 38.3427 66.0737 37.2497 67.1662L35.2337 69.1823C35.197 69.219 35.128 69.219 35.0913 69.1823L30.8177 64.9086C30.7993 64.8903 30.79 64.8664 30.79 64.8375C30.79 64.8086 30.7993 64.7846 30.8177 64.7664L32.8337 62.7504C34.4773 61.1069 34.9456 58.7516 34.0562 56.6041C33.1667 54.4569 31.1704 53.1229 28.8458 53.1229H25.9945C25.9427 53.1229 25.8937 53.0739 25.8937 53.0219V46.9784C25.8937 46.9264 25.9427 46.8774 25.9945 46.8774H28.8458C31.1702 46.8774 33.1667 45.5434 34.0562 43.3959C34.9458 41.2489 34.4773 38.8938 32.8337 37.2498L30.8177 35.2338C30.7993 35.2155 30.79 35.1916 30.79 35.1627C30.79 35.1338 30.7993 35.1098 30.8177 35.0916L35.0913 30.818C35.128 30.7813 35.197 30.7813 35.2337 30.818L37.2499 32.834C38.8935 34.4776 41.2486 34.9461 43.396 34.0565C45.5435 33.167 46.8775 31.1705 46.8775 28.8461V25.9948C46.8775 25.943 46.9265 25.894 46.9782 25.894H53.022C53.0737 25.894 53.1228 25.943 53.1228 25.9948V28.8461C53.1228 31.1705 54.4568 33.167 56.6042 34.0565C58.7517 34.9463 61.1068 34.4774 62.7503 32.834L64.7661 30.818C64.8028 30.7813 64.8724 30.7813 64.9085 30.818L69.1822 35.0916C69.2005 35.11 69.2099 35.1338 69.2099 35.1627C69.2099 35.1916 69.2005 35.2157 69.1822 35.2338L67.1661 37.25C65.5226 38.8938 65.0542 41.2489 65.9437 43.3959C66.8333 45.5434 68.8296 46.8774 71.154 46.8774H74.0054C74.0571 46.8774 74.1062 46.9264 74.1062 46.9784V53.0219C74.1062 53.0739 74.0571 53.1229 74.0054 53.1229H71.154C68.8296 53.1229 66.8331 54.4569 65.9435 56.6041C65.0542 58.7514 65.5228 61.1067 67.1661 62.7504L69.1822 64.7664C69.2005 64.7848 69.2099 64.8086 69.2099 64.8375C69.2099 64.8664 69.2005 64.8905 69.1822 64.9088ZM31.8433 21.1932C32.1312 21.1932 32.4202 21.1086 32.6714 20.9366C42.4474 14.2319 50.9126 13.8662 54.8525 14.1784L54.5708 15.2291C54.3333 16.116 54.6161 17.0432 55.3091 17.6487C55.9968 18.25 56.9507 18.403 57.7972 18.0489L68.1554 13.7172C68.8431 13.4295 69.3476 12.852 69.5404 12.1327C69.7329 11.4133 69.5845 10.6612 69.1329 10.0688L62.3286 1.13851C61.772 0.408041 60.8693 0.0644867 59.973 0.240854C59.0698 0.418979 58.3614 1.08109 58.1243 1.96761L57.5485 4.11683C51.6761 4.22445 47.0329 5.18773 43.0111 7.12425C38.122 9.47835 34.0611 13.3494 30.5966 18.9586C30.2327 19.5477 30.331 20.311 30.8321 20.7887C31.1128 21.0563 31.4769 21.1932 31.8433 21.1932ZM58.6753 7.03636C59.3384 7.03636 59.9187 6.59105 60.0902 5.95062L60.6683 3.7932L66.3771 11.2854L57.6872 14.9192L58.1196 13.3051C58.2267 12.9059 58.1601 12.4799 57.9362 12.1327C57.7124 11.7852 57.3525 11.5485 56.9446 11.4809C55.8669 11.302 54.481 11.1573 52.8187 11.1573C50.7712 11.1573 48.3046 11.377 45.4796 12.0239C42.7376 12.6516 40.028 13.5977 37.3728 14.8522C42.6017 9.37035 49.1864 7.03636 58.6753 7.03636ZM98.0788 33.7569C97.473 33.0643 96.5458 32.7813 95.6595 33.02L93.5103 33.5957C90.4808 28.5637 87.3251 25.0244 83.637 22.5096C79.1536 19.4526 73.7708 17.8713 67.1808 17.6754C66.4823 17.6567 65.8767 18.1219 65.7136 18.7944C65.5505 19.4672 65.8806 20.1625 66.5054 20.4612C77.1997 25.5754 81.7501 32.7227 83.4486 36.2916L82.3982 36.5729C81.5111 36.8106 80.8495 37.519 80.6714 38.4219C80.4948 39.3182 80.8386 40.2207 81.5691 40.7772L90.4991 47.5813C90.9218 47.9034 91.4257 48.0715 91.9409 48.0715C92.1484 48.0715 92.3573 48.0442 92.5636 47.9889C93.2829 47.7963 93.8605 47.2916 94.1478 46.6039L98.4798 36.2459C98.8341 35.3987 98.6804 34.4448 98.0788 33.7569ZM91.7163 44.8254L84.2243 39.1168L85.8386 38.6842C86.2378 38.5772 86.5732 38.3067 86.7622 37.9393C86.9513 37.5719 86.9763 37.1414 86.831 36.7545C85.9739 34.4719 84.2021 30.9438 80.6282 27.0971C78.7136 25.0362 76.5392 23.1625 74.1253 21.4907C81.4874 23.278 86.8011 27.8137 91.5456 36.0313C91.8771 36.6055 92.5528 36.8856 93.1935 36.7137L95.3507 36.1358L91.7163 44.8254ZM84.8816 48.0061C84.2175 48.2012 83.7804 48.8348 83.8341 49.525C84.7523 61.3432 80.8376 68.8577 78.5962 72.1133L77.8273 71.3442C77.178 70.695 76.2333 70.4764 75.3626 70.7737C74.498 71.0688 73.8886 71.818 73.7718 72.7284L72.3441 83.8645C72.2493 84.6035 72.497 85.3293 73.0236 85.8559C73.4763 86.3086 74.0765 86.5553 74.7056 86.5553C74.8081 86.5553 74.9116 86.5487 75.0154 86.5354L86.1513 85.1078C87.0622 84.9909 87.8112 84.3811 88.1064 83.5164C88.4034 82.6453 88.1845 81.701 87.5353 81.0522L85.9618 79.4787C88.805 74.3393 90.2921 69.8366 90.6259 65.3856C91.0318 59.9743 89.7099 54.5219 86.5843 48.7168C86.2562 48.1077 85.5466 47.8104 84.8816 48.0061ZM82.87 78.9951C82.5386 79.5692 82.6339 80.2946 83.1027 80.7635L84.6821 82.3428L75.3394 83.5405L76.5372 74.1979L77.7187 75.3795C78.0111 75.6717 78.4132 75.8264 78.8259 75.8069C79.2386 75.7868 79.6237 75.5932 79.8863 75.2739C81.4345 73.3905 83.6042 70.092 85.1486 65.0733C85.9759 62.3848 86.5114 59.5651 86.7525 56.6381C88.8857 63.9076 87.6146 70.7772 82.87 78.9951ZM67.3286 79.0637C57.5523 85.7682 49.0872 86.134 45.1476 85.8219L45.4288 84.7715C45.6667 83.8844 45.3839 82.9571 44.6909 82.3514C44.003 81.7502 43.0489 81.5967 42.2029 81.9514L31.8446 86.283C31.157 86.5707 30.6525 87.1483 30.4597 87.8676C30.2671 88.5869 30.4155 89.3391 30.8671 89.9315L37.6716 98.8619C38.1314 99.4655 38.8277 99.8051 39.5612 99.8051C39.7157 99.8051 39.8718 99.7901 40.0277 99.7592C40.9308 99.5809 41.639 98.9188 41.8757 98.0326L42.4515 95.8834C48.3241 95.7758 52.9671 94.8125 56.989 92.876C61.8782 90.5219 65.9392 86.6508 69.4036 81.0416C69.7675 80.4526 69.6693 79.6893 69.1681 79.2116C68.6667 78.7338 67.8995 78.6721 67.3286 79.0637ZM41.3245 92.9639C40.6614 92.9639 40.0812 93.4092 39.9097 94.0496L39.3316 96.2071L33.623 88.7149L42.3128 85.0811L41.8804 86.6953C41.7734 87.0944 41.84 87.5203 42.0638 87.8676C42.2876 88.2151 42.6476 88.4518 43.0554 88.5194C45.4609 88.919 49.4023 89.1485 54.5202 87.9766C57.2624 87.3489 59.972 86.4028 62.6273 85.1483C57.3986 90.6299 50.8136 92.9639 41.3245 92.9639ZM32.863 82.3252C33.5368 82.3252 34.1267 81.8641 34.2863 81.2057C34.4493 80.5328 34.1193 79.8375 33.4945 79.5389C22.7997 74.4244 18.2495 67.2774 16.5513 63.7084L17.6017 63.427C18.4888 63.1895 19.1503 62.4809 19.3282 61.578C19.5048 60.6817 19.1611 59.7793 18.4308 59.2229L9.50012 52.4184C8.90734 51.9668 8.15539 51.8182 7.43586 52.0112C6.71652 52.2037 6.13918 52.7086 5.85187 53.3961L1.51984 63.7541C1.16574 64.6016 1.31945 65.5553 1.92101 66.243C2.52707 66.936 3.45402 67.2186 4.34055 66.9801L6.48957 66.4043C9.51906 71.4364 12.6747 74.9756 16.3628 77.4905C20.8462 80.5475 26.2292 82.1287 32.8193 82.3246C32.8337 82.325 32.8486 82.3252 32.863 82.3252ZM8.45441 63.969C8.1882 63.5078 7.69973 63.2364 7.18605 63.2364C7.06008 63.2364 6.93273 63.2528 6.80676 63.2866L4.64933 63.8645L8.28351 55.1746L15.7757 60.8834L14.1614 61.316C13.7622 61.4229 13.4269 61.6936 13.2378 62.061C13.0487 62.4284 13.0237 62.8588 13.1691 63.2455C14.0261 65.5282 15.7976 69.0565 19.3718 72.9032C21.2864 74.9641 23.4607 76.8377 25.8747 78.5096C18.5128 76.7223 13.1989 72.1866 8.45441 63.969ZM14.7054 52.0537C14.8423 52.0537 14.9814 52.0344 15.1183 51.9942C15.7823 51.7991 16.2195 51.1655 16.1657 50.4752C15.2476 38.6567 19.1622 31.1422 21.4036 27.8869L22.1728 28.6561C22.8222 29.3055 23.7671 29.5245 24.6374 29.2266C25.5021 28.9315 26.1114 28.1823 26.2282 27.2719L27.656 16.1354C27.7505 15.3963 27.5028 14.6705 26.9761 14.144C26.4497 13.6176 25.7237 13.3707 24.9851 13.4647L13.8486 14.8922C12.9378 15.0092 12.1886 15.6192 11.8937 16.4838C11.5966 17.3551 11.8159 18.2994 12.465 18.9479L14.0382 20.5211C11.195 25.6606 9.70793 30.1633 9.37414 34.6145C8.96828 40.0258 10.2902 45.4782 13.4157 51.2832C13.6761 51.767 14.1775 52.0537 14.7054 52.0537ZM17.1298 21.0049C17.4613 20.4309 17.3659 19.7055 16.8972 19.2366L15.3179 17.6575L24.6607 16.4598L23.4628 25.8024L22.281 24.6207C21.9888 24.3286 21.5853 24.1729 21.1739 24.1934C20.7612 24.2137 20.3761 24.4071 20.1136 24.7264C18.5654 26.61 16.3958 29.9084 14.8513 34.927C14.0239 37.6155 13.4884 40.4354 13.2474 43.3621C11.1134 36.0922 12.3849 29.2235 17.1298 21.0049ZM50.0001 37.3725C43.0372 37.3725 37.3726 43.0371 37.3726 50C37.3726 56.9629 43.0372 62.6276 50.0001 62.6276C56.9628 62.6276 62.6275 56.9629 62.6275 50C62.6275 43.0371 56.9628 37.3725 50.0001 37.3725ZM50.0001 59.6981C44.6527 59.6981 40.3023 55.3477 40.3023 50.0002C40.3023 44.6528 44.6527 40.3024 50.0001 40.3024C55.3474 40.3024 59.6978 44.6528 59.6978 50.0002C59.6978 55.3477 55.3474 59.6981 50.0001 59.6981ZM51.4648 43.0229V50.0002C51.4648 50.3887 51.3105 50.7612 51.0359 51.0362L47.7523 54.3198C47.4661 54.6057 47.0911 54.7487 46.7163 54.7487C46.3415 54.7487 45.9665 54.6057 45.6804 54.3198C45.1083 53.7475 45.1083 52.8201 45.6804 52.2481L48.5351 49.3936V43.0231C48.5351 42.2139 49.1907 41.5582 49.9999 41.5582C50.8091 41.5582 51.4648 42.2137 51.4648 43.0229Z" fill="black"/>
</svg>
