<svg width="100" height="100" viewBox="0 0 100 100" fill="none" xmlns="http://www.w3.org/2000/svg">
<path d="M22.3223 7.03125C22.3223 7.89414 21.6227 8.59375 20.7598 8.59375H8.59375V20.7598C8.59375 21.6227 7.89414 22.3223 7.03125 22.3223C6.16836 22.3223 5.46875 21.6227 5.46875 20.7598V7.03125C5.46875 6.16836 6.16836 5.46875 7.03125 5.46875H20.7598C21.6227 5.46875 22.3223 6.16836 22.3223 7.03125ZM20.7598 91.4062H8.59375V79.2402C8.59375 78.3773 7.89414 77.6777 7.03125 77.6777C6.16836 77.6777 5.46875 78.3773 5.46875 79.2402V92.9688C5.46875 93.8316 6.16836 94.5312 7.03125 94.5312H20.7598C21.6227 94.5312 22.3223 93.8316 22.3223 92.9688C22.3223 92.1059 21.6227 91.4062 20.7598 91.4062ZM79.2402 8.59375H91.4062V20.7598C91.4062 21.6227 92.1059 22.3223 92.9688 22.3223C93.8316 22.3223 94.5312 21.6227 94.5312 20.7598V7.03125C94.5312 6.16836 93.8316 5.46875 92.9688 5.46875H79.2402C78.3773 5.46875 77.6777 6.16836 77.6777 7.03125C77.6777 7.89414 78.3773 8.59375 79.2402 8.59375ZM92.9688 77.6777C92.1059 77.6777 91.4062 78.3773 91.4062 79.2402V91.4062H79.2402C78.3773 91.4062 77.6777 92.1059 77.6777 92.9688C77.6777 93.8316 78.3773 94.5312 79.2402 94.5312H92.9688C93.8316 94.5312 94.5312 93.8316 94.5312 92.9688V79.2402C94.5312 78.3773 93.8316 77.6777 92.9688 77.6777ZM50 84.5467C49.1371 84.5467 48.4375 85.2463 48.4375 86.1092V96.875C48.4375 97.7379 49.1371 98.4375 50 98.4375C50.8629 98.4375 51.5625 97.7379 51.5625 96.875V86.1092C51.5625 85.2463 50.8629 84.5467 50 84.5467ZM96.875 48.4375H86.109C85.2461 48.4375 84.5465 49.1371 84.5465 50C84.5465 50.8629 85.2461 51.5625 86.109 51.5625H96.875C97.7379 51.5625 98.4375 50.8629 98.4375 50C98.4375 49.1371 97.7379 48.4375 96.875 48.4375ZM15.4533 50C15.4533 49.1371 14.7537 48.4375 13.8908 48.4375H3.125C2.26211 48.4375 1.5625 49.1371 1.5625 50C1.5625 50.8629 2.26211 51.5625 3.125 51.5625H13.8908C14.7539 51.5625 15.4533 50.8629 15.4533 50ZM50 15.4533C50.8629 15.4533 51.5625 14.7537 51.5625 13.8908V3.125C51.5625 2.26211 50.8629 1.5625 50 1.5625C49.1371 1.5625 48.4375 2.26211 48.4375 3.125V13.8908C48.4375 14.7537 49.1371 15.4533 50 15.4533ZM72.6678 35.9957C74.7715 37.9701 75.3103 41.0268 74.0088 43.6014C73.7684 44.0771 73.5518 44.4996 73.3572 44.8789C72.5785 46.3975 72.1875 47.16 72.0736 47.8057C71.9598 48.4518 72.0662 49.3016 72.2787 50.9947C72.3316 51.418 72.3908 51.8891 72.4541 52.4186C72.7965 55.2832 71.2449 57.9711 68.5926 59.1066C68.4344 59.1744 68.2836 59.2387 68.1361 59.3014L73.2414 71.1543C73.4717 71.6889 73.3855 72.307 73.0182 72.7586C72.651 73.2102 72.0629 73.4209 71.4928 73.3031L64.6234 71.8965L60.926 77.8545C60.6396 78.3158 60.1363 78.5932 59.5986 78.5932C59.56 78.5932 59.5213 78.5918 59.4822 78.5889C58.9018 78.5457 58.3936 78.1834 58.1633 77.649L53.69 67.2637C53.4854 67.2008 53.2896 67.1404 53.1051 67.0834C51.4744 66.5803 50.6559 66.3277 50 66.3277C49.4959 66.3277 48.8939 66.4775 47.9027 66.775L41.6609 80.1816C41.4152 80.7092 40.8967 81.0564 40.3152 81.083C40.2914 81.084 40.2678 81.0846 40.2441 81.0846C39.6895 81.0846 39.174 80.7898 38.8934 80.3072L35.3703 74.2443L28.4629 75.4516C27.89 75.552 27.308 75.3248 26.9539 74.8629C26.5998 74.401 26.5318 73.7805 26.7775 73.2527L33.0412 59.799C32.9402 59.7564 32.8365 59.7127 32.7283 59.667C32.3354 59.5012 31.8979 59.3168 31.4074 59.1068C28.7553 57.9711 27.2035 55.2832 27.5459 52.4188C27.6092 51.8893 27.6682 51.4182 27.7213 50.9949C27.9336 49.3018 28.0402 48.4518 27.9264 47.8059C27.8125 47.16 27.4217 46.3977 26.6428 44.8791C26.4482 44.4998 26.2316 44.0773 25.9912 43.6016C24.6896 41.0268 25.2287 37.9703 27.3322 35.9959C27.7211 35.6309 28.0691 35.308 28.3818 35.018C29.633 33.8574 30.2609 33.2748 30.5889 32.7068C30.9168 32.1391 31.1072 31.3039 31.4869 29.6404C31.5818 29.2246 31.6873 28.7615 31.809 28.2422C32.467 25.4332 34.8445 23.4383 37.7252 23.2779C38.2578 23.2482 38.732 23.2248 39.1578 23.2033C40.8623 23.1186 41.7176 23.076 42.334 22.8516C42.9502 22.6273 43.633 22.11 44.9934 21.0795C45.3332 20.8221 45.7117 20.5354 46.1385 20.2158C48.4482 18.4865 51.552 18.4869 53.8615 20.2158C54.2885 20.5354 54.667 20.8221 55.0066 21.0795C56.367 22.11 57.0496 22.6273 57.666 22.8516C58.2822 23.0758 59.1377 23.1186 60.8422 23.2033C61.2682 23.2246 61.7422 23.248 62.2748 23.2779C65.1555 23.4381 67.533 25.4332 68.191 28.2424C68.3127 28.7615 68.4184 29.2246 68.5131 29.6404C68.8926 31.3041 69.0832 32.1391 69.4111 32.7068C69.7391 33.2748 70.3672 33.8574 71.6182 35.018C71.9309 35.3076 72.2789 35.6307 72.6678 35.9957ZM43.9916 67.7719C43.8715 67.7785 43.7514 67.7852 43.6318 67.7852C41.5037 67.7852 39.4861 66.7275 38.266 64.8621C37.9742 64.4158 37.7166 64.017 37.4854 63.6588C36.6875 62.4232 36.232 61.7188 35.7998 61.2775L30.8738 71.8578L35.9051 70.9785C36.5504 70.8666 37.1963 71.167 37.525 71.7326L40.0912 76.1486L43.9916 67.7719ZM69.1869 69.6412L65.2703 60.5477C64.9006 60.7326 64.6268 60.8996 64.4074 61.0834C63.9051 61.5049 63.4404 62.2246 62.5148 63.6582C62.2834 64.0164 62.0258 64.4154 61.7338 64.8619C60.6916 66.4557 59.0666 67.459 57.2883 67.7176L59.849 73.6631L62.5422 69.3232C62.8871 68.767 63.542 68.4844 64.1832 68.6164L69.1869 69.6412ZM70.5291 38.2742C70.1453 37.9139 69.8016 37.5951 69.493 37.309C66.5193 34.5504 66.3688 34.2896 65.4666 30.3354C65.373 29.9248 65.2687 29.4678 65.1486 28.9551C64.8043 27.4855 63.6082 26.4818 62.1014 26.3979C61.5758 26.3687 61.1076 26.3453 60.6871 26.3244C56.6359 26.1229 56.3531 26.0197 53.1199 23.5703C52.7844 23.316 52.4107 23.0328 51.9891 22.7174C51.385 22.2652 50.6926 22.0391 50.0002 22.0391C49.3078 22.0391 48.6154 22.265 48.0113 22.7174C47.5896 23.0328 47.216 23.316 46.8805 23.5703C43.6473 26.0197 43.3645 26.1227 39.3133 26.3244C38.8928 26.3453 38.4246 26.3687 37.8988 26.3979C36.392 26.4818 35.1959 27.4853 34.8516 28.9549C34.7314 29.4678 34.6271 29.925 34.5336 30.3354C33.6314 34.2896 33.4809 34.5504 30.5072 37.309C30.1986 37.5953 29.8549 37.9141 29.4709 38.2742C28.3705 39.307 28.0994 40.8447 28.7803 42.1916C29.0178 42.6613 29.2316 43.0785 29.4236 43.4531C31.2746 47.0627 31.327 47.3592 30.8221 51.3838C30.7697 51.8016 30.7113 52.2668 30.6488 52.7895C30.4697 54.2881 31.2504 55.6402 32.6377 56.2344C33.1219 56.4418 33.5539 56.6236 33.942 56.7873C37.6797 58.3623 37.9104 58.5561 40.1107 61.9637C40.3391 62.3174 40.5934 62.7109 40.8814 63.1516C41.7074 64.4148 43.1752 64.9492 44.6191 64.5119C45.1232 64.3598 45.5713 64.2215 45.9734 64.0973C49.8496 62.9018 50.1508 62.902 54.0264 64.0973C54.4287 64.2215 54.8766 64.3598 55.3805 64.5119C56.8252 64.9486 58.2924 64.4146 59.1184 63.1516C59.4066 62.7107 59.6609 62.317 59.8895 61.9631C62.0898 58.5559 62.3203 58.3621 66.0586 56.7869C66.4465 56.6234 66.8783 56.4414 67.3621 56.2344C68.7494 55.6402 69.5301 54.2881 69.351 52.7895C69.2885 52.2666 69.2301 51.8014 69.1777 51.3838C68.673 47.3592 68.7252 47.0627 70.5762 43.4531C70.7682 43.0785 70.9822 42.6613 71.2195 42.1916C71.9006 40.8447 71.6295 39.307 70.5291 38.2742ZM65.2246 43.351C65.2246 51.7457 58.3949 58.5756 50 58.5756C41.6051 58.5756 34.7754 51.7457 34.7754 43.351C34.7754 34.9562 41.6051 28.1264 50 28.1264C58.3949 28.1264 65.2246 34.9562 65.2246 43.351ZM62.0996 43.351C62.0996 36.6793 56.6717 31.2514 50 31.2514C43.3281 31.2514 37.9004 36.6793 37.9004 43.351C37.9004 50.0227 43.3283 55.4506 50 55.4506C56.6719 55.4506 62.0996 50.0227 62.0996 43.351ZM54.8094 38.4273L47.6107 44.9602L45.2455 42.5949C44.6353 41.985 43.6461 41.985 43.0359 42.5949C42.4258 43.2053 42.4258 44.1943 43.0359 44.8047L46.4537 48.2225C46.758 48.5268 47.158 48.6801 47.5588 48.6801C47.9342 48.6801 48.3102 48.5457 48.6086 48.2746L56.9096 40.7414C57.5484 40.1615 57.5965 39.1734 57.0166 38.5344C56.4365 37.8951 55.4484 37.8471 54.8094 38.4273Z" fill="black"/>
</svg>
